<svg xmlns="http://www.w3.org/2000/svg" xmlns:xlink="http://www.w3.org/1999/xlink" width="500" zoomAndPan="magnify" viewBox="0 0 375 374.999991" height="500" preserveAspectRatio="xMidYMid meet" version="1.0"><defs><g/><clipPath id="c54d5e1973"><path d="M 59 56 L 307 56 L 307 304 L 59 304 Z M 59 56 " clip-rule="nonzero"/></clipPath><clipPath id="921df97249"><path d="M 25.292969 10.988281 L 374.894531 75.484375 L 321.691406 363.867188 L -27.910156 299.371094 Z M 25.292969 10.988281 " clip-rule="nonzero"/></clipPath><clipPath id="7fb4d6e8ad"><path d="M 25.292969 10.988281 L 374.894531 75.484375 L 321.691406 363.867188 L -27.910156 299.371094 Z M 25.292969 10.988281 " clip-rule="nonzero"/></clipPath><clipPath id="1f7d4245ce"><path d="M 244 92 L 251 92 L 251 110 L 244 110 Z M 244 92 " clip-rule="nonzero"/></clipPath><clipPath id="b76fa55256"><path d="M 25.292969 10.988281 L 374.894531 75.484375 L 321.691406 363.867188 L -27.910156 299.371094 Z M 25.292969 10.988281 " clip-rule="nonzero"/></clipPath><clipPath id="663bd822b0"><path d="M 25.292969 10.988281 L 374.894531 75.484375 L 321.691406 363.867188 L -27.910156 299.371094 Z M 25.292969 10.988281 " clip-rule="nonzero"/></clipPath><clipPath id="d8a6de15a6"><path d="M 271 151 L 307 151 L 307 202 L 271 202 Z M 271 151 " clip-rule="nonzero"/></clipPath><clipPath id="f4baa0993b"><path d="M 25.292969 10.988281 L 374.894531 75.484375 L 321.691406 363.867188 L -27.910156 299.371094 Z M 25.292969 10.988281 " clip-rule="nonzero"/></clipPath><clipPath id="bb2bae9c1d"><path d="M 25.292969 10.988281 L 374.894531 75.484375 L 321.691406 363.867188 L -27.910156 299.371094 Z M 25.292969 10.988281 " clip-rule="nonzero"/></clipPath><clipPath id="b832093c5d"><path d="M 66 132 L 77 132 L 77 164 L 66 164 Z M 66 132 " clip-rule="nonzero"/></clipPath><clipPath id="5b18e55549"><path d="M 25.292969 10.988281 L 374.894531 75.484375 L 321.691406 363.867188 L -27.910156 299.371094 Z M 25.292969 10.988281 " clip-rule="nonzero"/></clipPath><clipPath id="9aed4e0bb9"><path d="M 25.292969 10.988281 L 374.894531 75.484375 L 321.691406 363.867188 L -27.910156 299.371094 Z M 25.292969 10.988281 " clip-rule="nonzero"/></clipPath><clipPath id="a73ff9c128"><path d="M 90 235 L 128 235 L 128 253 L 90 253 Z M 90 235 " clip-rule="nonzero"/></clipPath><clipPath id="15dd72a930"><path d="M 25.292969 10.988281 L 374.894531 75.484375 L 321.691406 363.867188 L -27.910156 299.371094 Z M 25.292969 10.988281 " clip-rule="nonzero"/></clipPath><clipPath id="c0e163dd4c"><path d="M 25.292969 10.988281 L 374.894531 75.484375 L 321.691406 363.867188 L -27.910156 299.371094 Z M 25.292969 10.988281 " clip-rule="nonzero"/></clipPath><clipPath id="20daf33ebe"><path d="M 126 232 L 288 232 L 288 305 L 126 305 Z M 126 232 " clip-rule="nonzero"/></clipPath><clipPath id="28b8fff33d"><path d="M 25.292969 10.988281 L 374.894531 75.484375 L 321.691406 363.867188 L -27.910156 299.371094 Z M 25.292969 10.988281 " clip-rule="nonzero"/></clipPath><clipPath id="f4d3bd4475"><path d="M 25.292969 10.988281 L 374.894531 75.484375 L 321.691406 363.867188 L -27.910156 299.371094 Z M 25.292969 10.988281 " clip-rule="nonzero"/></clipPath><clipPath id="d71ea50236"><path d="M 59 195 L 95 195 L 95 218 L 59 218 Z M 59 195 " clip-rule="nonzero"/></clipPath><clipPath id="1f1b85c147"><path d="M 25.292969 10.988281 L 374.894531 75.484375 L 321.691406 363.867188 L -27.910156 299.371094 Z M 25.292969 10.988281 " clip-rule="nonzero"/></clipPath><clipPath id="6d6a4a531d"><path d="M 25.292969 10.988281 L 374.894531 75.484375 L 321.691406 363.867188 L -27.910156 299.371094 Z M 25.292969 10.988281 " clip-rule="nonzero"/></clipPath><clipPath id="93c2fe6dbd"><path d="M 287 189 L 310 189 L 310 217 L 287 217 Z M 287 189 " clip-rule="nonzero"/></clipPath><clipPath id="3d58cb9a76"><path d="M 25.292969 10.988281 L 374.894531 75.484375 L 321.691406 363.867188 L -27.910156 299.371094 Z M 25.292969 10.988281 " clip-rule="nonzero"/></clipPath><clipPath id="23e108444e"><path d="M 25.292969 10.988281 L 374.894531 75.484375 L 321.691406 363.867188 L -27.910156 299.371094 Z M 25.292969 10.988281 " clip-rule="nonzero"/></clipPath><clipPath id="7ea66ed652"><path d="M 287 197 L 310 197 L 310 217 L 287 217 Z M 287 197 " clip-rule="nonzero"/></clipPath><clipPath id="fe7f13ae3c"><path d="M 25.292969 10.988281 L 374.894531 75.484375 L 321.691406 363.867188 L -27.910156 299.371094 Z M 25.292969 10.988281 " clip-rule="nonzero"/></clipPath><clipPath id="223d31f16f"><path d="M 25.292969 10.988281 L 374.894531 75.484375 L 321.691406 363.867188 L -27.910156 299.371094 Z M 25.292969 10.988281 " clip-rule="nonzero"/></clipPath><clipPath id="7f29dbf451"><path d="M 96 73 L 105 73 L 105 82 L 96 82 Z M 96 73 " clip-rule="nonzero"/></clipPath><clipPath id="fc16d62308"><path d="M 25.292969 10.988281 L 374.894531 75.484375 L 321.691406 363.867188 L -27.910156 299.371094 Z M 25.292969 10.988281 " clip-rule="nonzero"/></clipPath><clipPath id="80a68222dc"><path d="M 25.292969 10.988281 L 374.894531 75.484375 L 321.691406 363.867188 L -27.910156 299.371094 Z M 25.292969 10.988281 " clip-rule="nonzero"/></clipPath><clipPath id="9e78f470ac"><path d="M 96 75 L 105 75 L 105 82 L 96 82 Z M 96 75 " clip-rule="nonzero"/></clipPath><clipPath id="f06b31fd82"><path d="M 25.292969 10.988281 L 374.894531 75.484375 L 321.691406 363.867188 L -27.910156 299.371094 Z M 25.292969 10.988281 " clip-rule="nonzero"/></clipPath><clipPath id="00fb7a82fb"><path d="M 25.292969 10.988281 L 374.894531 75.484375 L 321.691406 363.867188 L -27.910156 299.371094 Z M 25.292969 10.988281 " clip-rule="nonzero"/></clipPath><clipPath id="aa32a22ba7"><path d="M 243 63 L 263 63 L 263 83 L 243 83 Z M 243 63 " clip-rule="nonzero"/></clipPath><clipPath id="e012a3c71f"><path d="M 25.292969 10.988281 L 374.894531 75.484375 L 321.691406 363.867188 L -27.910156 299.371094 Z M 25.292969 10.988281 " clip-rule="nonzero"/></clipPath><clipPath id="6411fd9a12"><path d="M 25.292969 10.988281 L 374.894531 75.484375 L 321.691406 363.867188 L -27.910156 299.371094 Z M 25.292969 10.988281 " clip-rule="nonzero"/></clipPath><clipPath id="b4f2670e0d"><path d="M 243 68 L 263 68 L 263 83 L 243 83 Z M 243 68 " clip-rule="nonzero"/></clipPath><clipPath id="9266f1d0de"><path d="M 25.292969 10.988281 L 374.894531 75.484375 L 321.691406 363.867188 L -27.910156 299.371094 Z M 25.292969 10.988281 " clip-rule="nonzero"/></clipPath><clipPath id="e2531af149"><path d="M 25.292969 10.988281 L 374.894531 75.484375 L 321.691406 363.867188 L -27.910156 299.371094 Z M 25.292969 10.988281 " clip-rule="nonzero"/></clipPath><clipPath id="77cc0cd34a"><path d="M 355 116 L 367 116 L 367 128 L 355 128 Z M 355 116 " clip-rule="nonzero"/></clipPath><clipPath id="26d636e3cf"><path d="M 25.292969 10.988281 L 374.894531 75.484375 L 321.691406 363.867188 L -27.910156 299.371094 Z M 25.292969 10.988281 " clip-rule="nonzero"/></clipPath><clipPath id="b274cdaa65"><path d="M 25.292969 10.988281 L 374.894531 75.484375 L 321.691406 363.867188 L -27.910156 299.371094 Z M 25.292969 10.988281 " clip-rule="nonzero"/></clipPath><clipPath id="0869f3ca3c"><path d="M 355 119 L 367 119 L 367 128 L 355 128 Z M 355 119 " clip-rule="nonzero"/></clipPath><clipPath id="cdc258c80c"><path d="M 25.292969 10.988281 L 374.894531 75.484375 L 321.691406 363.867188 L -27.910156 299.371094 Z M 25.292969 10.988281 " clip-rule="nonzero"/></clipPath><clipPath id="015b86e9eb"><path d="M 25.292969 10.988281 L 374.894531 75.484375 L 321.691406 363.867188 L -27.910156 299.371094 Z M 25.292969 10.988281 " clip-rule="nonzero"/></clipPath><clipPath id="c9e692daf1"><path d="M 265 115 L 277 115 L 277 127 L 265 127 Z M 265 115 " clip-rule="nonzero"/></clipPath><clipPath id="d278775a66"><path d="M 25.292969 10.988281 L 374.894531 75.484375 L 321.691406 363.867188 L -27.910156 299.371094 Z M 25.292969 10.988281 " clip-rule="nonzero"/></clipPath><clipPath id="afca3a4eaf"><path d="M 25.292969 10.988281 L 374.894531 75.484375 L 321.691406 363.867188 L -27.910156 299.371094 Z M 25.292969 10.988281 " clip-rule="nonzero"/></clipPath><clipPath id="837376c246"><path d="M 265 118 L 277 118 L 277 127 L 265 127 Z M 265 118 " clip-rule="nonzero"/></clipPath><clipPath id="0d5c10de3d"><path d="M 25.292969 10.988281 L 374.894531 75.484375 L 321.691406 363.867188 L -27.910156 299.371094 Z M 25.292969 10.988281 " clip-rule="nonzero"/></clipPath><clipPath id="bc89c57b53"><path d="M 25.292969 10.988281 L 374.894531 75.484375 L 321.691406 363.867188 L -27.910156 299.371094 Z M 25.292969 10.988281 " clip-rule="nonzero"/></clipPath><clipPath id="95bc6e4d8a"><path d="M 38 194 L 50 194 L 50 206 L 38 206 Z M 38 194 " clip-rule="nonzero"/></clipPath><clipPath id="e762c4d329"><path d="M 25.292969 10.988281 L 374.894531 75.484375 L 321.691406 363.867188 L -27.910156 299.371094 Z M 25.292969 10.988281 " clip-rule="nonzero"/></clipPath><clipPath id="a8d3aeb343"><path d="M 25.292969 10.988281 L 374.894531 75.484375 L 321.691406 363.867188 L -27.910156 299.371094 Z M 25.292969 10.988281 " clip-rule="nonzero"/></clipPath><clipPath id="354c553da2"><path d="M 38 197 L 50 197 L 50 206 L 38 206 Z M 38 197 " clip-rule="nonzero"/></clipPath><clipPath id="6f4756137c"><path d="M 25.292969 10.988281 L 374.894531 75.484375 L 321.691406 363.867188 L -27.910156 299.371094 Z M 25.292969 10.988281 " clip-rule="nonzero"/></clipPath><clipPath id="2975d5137f"><path d="M 25.292969 10.988281 L 374.894531 75.484375 L 321.691406 363.867188 L -27.910156 299.371094 Z M 25.292969 10.988281 " clip-rule="nonzero"/></clipPath><clipPath id="e3ec1bbf55"><path d="M 209 304 L 221 304 L 221 316 L 209 316 Z M 209 304 " clip-rule="nonzero"/></clipPath><clipPath id="db1554f2cb"><path d="M 25.292969 10.988281 L 374.894531 75.484375 L 321.691406 363.867188 L -27.910156 299.371094 Z M 25.292969 10.988281 " clip-rule="nonzero"/></clipPath><clipPath id="56259fe5ec"><path d="M 25.292969 10.988281 L 374.894531 75.484375 L 321.691406 363.867188 L -27.910156 299.371094 Z M 25.292969 10.988281 " clip-rule="nonzero"/></clipPath><clipPath id="572749a495"><path d="M 209 307 L 221 307 L 221 316 L 209 316 Z M 209 307 " clip-rule="nonzero"/></clipPath><clipPath id="949ab2428a"><path d="M 25.292969 10.988281 L 374.894531 75.484375 L 321.691406 363.867188 L -27.910156 299.371094 Z M 25.292969 10.988281 " clip-rule="nonzero"/></clipPath><clipPath id="ca1cb31d56"><path d="M 25.292969 10.988281 L 374.894531 75.484375 L 321.691406 363.867188 L -27.910156 299.371094 Z M 25.292969 10.988281 " clip-rule="nonzero"/></clipPath><clipPath id="58263a0bd4"><path d="M 12 76 L 26 76 L 26 91 L 12 91 Z M 12 76 " clip-rule="nonzero"/></clipPath><clipPath id="bf40323eff"><path d="M 25.292969 10.988281 L 374.894531 75.484375 L 321.691406 363.867188 L -27.910156 299.371094 Z M 25.292969 10.988281 " clip-rule="nonzero"/></clipPath><clipPath id="300c6a9a84"><path d="M 25.292969 10.988281 L 374.894531 75.484375 L 321.691406 363.867188 L -27.910156 299.371094 Z M 25.292969 10.988281 " clip-rule="nonzero"/></clipPath><clipPath id="e6288c0bba"><path d="M 12 80 L 26 80 L 26 91 L 12 91 Z M 12 80 " clip-rule="nonzero"/></clipPath><clipPath id="6610a581fe"><path d="M 25.292969 10.988281 L 374.894531 75.484375 L 321.691406 363.867188 L -27.910156 299.371094 Z M 25.292969 10.988281 " clip-rule="nonzero"/></clipPath><clipPath id="26f071dfee"><path d="M 25.292969 10.988281 L 374.894531 75.484375 L 321.691406 363.867188 L -27.910156 299.371094 Z M 25.292969 10.988281 " clip-rule="nonzero"/></clipPath><clipPath id="7b40ebff74"><path d="M 56 261 L 62 261 L 62 267 L 56 267 Z M 56 261 " clip-rule="nonzero"/></clipPath><clipPath id="b17eba21fa"><path d="M 25.292969 10.988281 L 374.894531 75.484375 L 321.691406 363.867188 L -27.910156 299.371094 Z M 25.292969 10.988281 " clip-rule="nonzero"/></clipPath><clipPath id="8492aba076"><path d="M 25.292969 10.988281 L 374.894531 75.484375 L 321.691406 363.867188 L -27.910156 299.371094 Z M 25.292969 10.988281 " clip-rule="nonzero"/></clipPath><clipPath id="56395a865d"><path d="M 56 263 L 62 263 L 62 267 L 56 267 Z M 56 263 " clip-rule="nonzero"/></clipPath><clipPath id="d0828dc33c"><path d="M 25.292969 10.988281 L 374.894531 75.484375 L 321.691406 363.867188 L -27.910156 299.371094 Z M 25.292969 10.988281 " clip-rule="nonzero"/></clipPath><clipPath id="c67a65c8b8"><path d="M 25.292969 10.988281 L 374.894531 75.484375 L 321.691406 363.867188 L -27.910156 299.371094 Z M 25.292969 10.988281 " clip-rule="nonzero"/></clipPath><clipPath id="15415a321f"><path d="M 32 88 L 63 88 L 63 119 L 32 119 Z M 32 88 " clip-rule="nonzero"/></clipPath><clipPath id="9f23d77a53"><path d="M 25.292969 10.988281 L 374.894531 75.484375 L 321.691406 363.867188 L -27.910156 299.371094 Z M 25.292969 10.988281 " clip-rule="nonzero"/></clipPath><clipPath id="5848d0767b"><path d="M 25.292969 10.988281 L 374.894531 75.484375 L 321.691406 363.867188 L -27.910156 299.371094 Z M 25.292969 10.988281 " clip-rule="nonzero"/></clipPath><clipPath id="db409ced63"><path d="M 32 97 L 62 97 L 62 119 L 32 119 Z M 32 97 " clip-rule="nonzero"/></clipPath><clipPath id="fa6c85e36d"><path d="M 25.292969 10.988281 L 374.894531 75.484375 L 321.691406 363.867188 L -27.910156 299.371094 Z M 25.292969 10.988281 " clip-rule="nonzero"/></clipPath><clipPath id="875a0c786a"><path d="M 25.292969 10.988281 L 374.894531 75.484375 L 321.691406 363.867188 L -27.910156 299.371094 Z M 25.292969 10.988281 " clip-rule="nonzero"/></clipPath><clipPath id="fe84bca5ed"><path d="M 320 132 L 350 132 L 350 155 L 320 155 Z M 320 132 " clip-rule="nonzero"/></clipPath><clipPath id="7ab0874cdb"><path d="M 25.292969 10.988281 L 374.894531 75.484375 L 321.691406 363.867188 L -27.910156 299.371094 Z M 25.292969 10.988281 " clip-rule="nonzero"/></clipPath><clipPath id="0cbf861e7e"><path d="M 25.292969 10.988281 L 374.894531 75.484375 L 321.691406 363.867188 L -27.910156 299.371094 Z M 25.292969 10.988281 " clip-rule="nonzero"/></clipPath><clipPath id="205b6efbdb"><path d="M 320 132 L 342 132 L 342 155 L 320 155 Z M 320 132 " clip-rule="nonzero"/></clipPath><clipPath id="537ffcbe09"><path d="M 25.292969 10.988281 L 374.894531 75.484375 L 321.691406 363.867188 L -27.910156 299.371094 Z M 25.292969 10.988281 " clip-rule="nonzero"/></clipPath><clipPath id="df81d26bf5"><path d="M 25.292969 10.988281 L 374.894531 75.484375 L 321.691406 363.867188 L -27.910156 299.371094 Z M 25.292969 10.988281 " clip-rule="nonzero"/></clipPath><clipPath id="140ac5289e"><path d="M 189 52 L 199 52 L 199 63 L 189 63 Z M 189 52 " clip-rule="nonzero"/></clipPath><clipPath id="c92d41bdd3"><path d="M 25.292969 10.988281 L 374.894531 75.484375 L 321.691406 363.867188 L -27.910156 299.371094 Z M 25.292969 10.988281 " clip-rule="nonzero"/></clipPath><clipPath id="79d3276247"><path d="M 25.292969 10.988281 L 374.894531 75.484375 L 321.691406 363.867188 L -27.910156 299.371094 Z M 25.292969 10.988281 " clip-rule="nonzero"/></clipPath><clipPath id="9a9e142a3d"><path d="M 189 55 L 199 55 L 199 63 L 189 63 Z M 189 55 " clip-rule="nonzero"/></clipPath><clipPath id="bc5e669b13"><path d="M 25.292969 10.988281 L 374.894531 75.484375 L 321.691406 363.867188 L -27.910156 299.371094 Z M 25.292969 10.988281 " clip-rule="nonzero"/></clipPath><clipPath id="ffb42e5ae0"><path d="M 25.292969 10.988281 L 374.894531 75.484375 L 321.691406 363.867188 L -27.910156 299.371094 Z M 25.292969 10.988281 " clip-rule="nonzero"/></clipPath><clipPath id="1910fc9503"><path d="M 19 159 L 44 159 L 44 184 L 19 184 Z M 19 159 " clip-rule="nonzero"/></clipPath><clipPath id="96b7bbbe03"><path d="M 25.292969 10.988281 L 374.894531 75.484375 L 321.691406 363.867188 L -27.910156 299.371094 Z M 25.292969 10.988281 " clip-rule="nonzero"/></clipPath><clipPath id="fc801a2bcb"><path d="M 25.292969 10.988281 L 374.894531 75.484375 L 321.691406 363.867188 L -27.910156 299.371094 Z M 25.292969 10.988281 " clip-rule="nonzero"/></clipPath><clipPath id="46815d84e4"><path d="M 19 166 L 44 166 L 44 184 L 19 184 Z M 19 166 " clip-rule="nonzero"/></clipPath><clipPath id="40a22020ec"><path d="M 25.292969 10.988281 L 374.894531 75.484375 L 321.691406 363.867188 L -27.910156 299.371094 Z M 25.292969 10.988281 " clip-rule="nonzero"/></clipPath><clipPath id="1e66c2c3f6"><path d="M 25.292969 10.988281 L 374.894531 75.484375 L 321.691406 363.867188 L -27.910156 299.371094 Z M 25.292969 10.988281 " clip-rule="nonzero"/></clipPath><clipPath id="781036bc9c"><path d="M 151 302 L 162 302 L 162 312 L 151 312 Z M 151 302 " clip-rule="nonzero"/></clipPath><clipPath id="fa4e2dae9e"><path d="M 25.292969 10.988281 L 374.894531 75.484375 L 321.691406 363.867188 L -27.910156 299.371094 Z M 25.292969 10.988281 " clip-rule="nonzero"/></clipPath><clipPath id="c1721864a6"><path d="M 25.292969 10.988281 L 374.894531 75.484375 L 321.691406 363.867188 L -27.910156 299.371094 Z M 25.292969 10.988281 " clip-rule="nonzero"/></clipPath><clipPath id="47aa8f08ea"><path d="M 151 305 L 162 305 L 162 312 L 151 312 Z M 151 305 " clip-rule="nonzero"/></clipPath><clipPath id="4469270592"><path d="M 25.292969 10.988281 L 374.894531 75.484375 L 321.691406 363.867188 L -27.910156 299.371094 Z M 25.292969 10.988281 " clip-rule="nonzero"/></clipPath><clipPath id="939c2511ab"><path d="M 25.292969 10.988281 L 374.894531 75.484375 L 321.691406 363.867188 L -27.910156 299.371094 Z M 25.292969 10.988281 " clip-rule="nonzero"/></clipPath><clipPath id="0a318c7774"><path d="M 72 257 L 96 257 L 96 281 L 72 281 Z M 72 257 " clip-rule="nonzero"/></clipPath><clipPath id="26b7fead7a"><path d="M 25.292969 10.988281 L 374.894531 75.484375 L 321.691406 363.867188 L -27.910156 299.371094 Z M 25.292969 10.988281 " clip-rule="nonzero"/></clipPath><clipPath id="8a8966d096"><path d="M 25.292969 10.988281 L 374.894531 75.484375 L 321.691406 363.867188 L -27.910156 299.371094 Z M 25.292969 10.988281 " clip-rule="nonzero"/></clipPath><clipPath id="c41a3610f9"><path d="M 72 264 L 96 264 L 96 281 L 72 281 Z M 72 264 " clip-rule="nonzero"/></clipPath><clipPath id="b253a622a4"><path d="M 25.292969 10.988281 L 374.894531 75.484375 L 321.691406 363.867188 L -27.910156 299.371094 Z M 25.292969 10.988281 " clip-rule="nonzero"/></clipPath><clipPath id="0503a94122"><path d="M 25.292969 10.988281 L 374.894531 75.484375 L 321.691406 363.867188 L -27.910156 299.371094 Z M 25.292969 10.988281 " clip-rule="nonzero"/></clipPath><clipPath id="3ec76ab838"><path d="M 296 247 L 311 247 L 311 265 L 296 265 Z M 296 247 " clip-rule="nonzero"/></clipPath><clipPath id="9e24a173f2"><path d="M 25.292969 10.988281 L 374.894531 75.484375 L 321.691406 363.867188 L -27.910156 299.371094 Z M 25.292969 10.988281 " clip-rule="nonzero"/></clipPath><clipPath id="5f8b48c15b"><path d="M 25.292969 10.988281 L 374.894531 75.484375 L 321.691406 363.867188 L -27.910156 299.371094 Z M 25.292969 10.988281 " clip-rule="nonzero"/></clipPath><clipPath id="60b67bebd7"><path d="M 296 252 L 311 252 L 311 265 L 296 265 Z M 296 252 " clip-rule="nonzero"/></clipPath><clipPath id="b0586cc4f9"><path d="M 25.292969 10.988281 L 374.894531 75.484375 L 321.691406 363.867188 L -27.910156 299.371094 Z M 25.292969 10.988281 " clip-rule="nonzero"/></clipPath><clipPath id="b82cecf8de"><path d="M 25.292969 10.988281 L 374.894531 75.484375 L 321.691406 363.867188 L -27.910156 299.371094 Z M 25.292969 10.988281 " clip-rule="nonzero"/></clipPath><clipPath id="feede453f6"><path d="M 277 59 L 286 59 L 286 69 L 277 69 Z M 277 59 " clip-rule="nonzero"/></clipPath><clipPath id="f1653d8e78"><path d="M 25.292969 10.988281 L 374.894531 75.484375 L 321.691406 363.867188 L -27.910156 299.371094 Z M 25.292969 10.988281 " clip-rule="nonzero"/></clipPath><clipPath id="fe9bdbbb90"><path d="M 25.292969 10.988281 L 374.894531 75.484375 L 321.691406 363.867188 L -27.910156 299.371094 Z M 25.292969 10.988281 " clip-rule="nonzero"/></clipPath><clipPath id="c6591b4fec"><path d="M 277 62 L 286 62 L 286 69 L 277 69 Z M 277 62 " clip-rule="nonzero"/></clipPath><clipPath id="77d4df7257"><path d="M 25.292969 10.988281 L 374.894531 75.484375 L 321.691406 363.867188 L -27.910156 299.371094 Z M 25.292969 10.988281 " clip-rule="nonzero"/></clipPath><clipPath id="d6da9afd61"><path d="M 25.292969 10.988281 L 374.894531 75.484375 L 321.691406 363.867188 L -27.910156 299.371094 Z M 25.292969 10.988281 " clip-rule="nonzero"/></clipPath><clipPath id="b78f77e96b"><path d="M 178 319 L 198 319 L 198 339 L 178 339 Z M 178 319 " clip-rule="nonzero"/></clipPath><clipPath id="816f5e2c5e"><path d="M 25.292969 10.988281 L 374.894531 75.484375 L 321.691406 363.867188 L -27.910156 299.371094 Z M 25.292969 10.988281 " clip-rule="nonzero"/></clipPath><clipPath id="3478e6f87c"><path d="M 25.292969 10.988281 L 374.894531 75.484375 L 321.691406 363.867188 L -27.910156 299.371094 Z M 25.292969 10.988281 " clip-rule="nonzero"/></clipPath><clipPath id="b0cc2ee57e"><path d="M 178 325 L 198 325 L 198 339 L 178 339 Z M 178 325 " clip-rule="nonzero"/></clipPath><clipPath id="375d00e7c6"><path d="M 25.292969 10.988281 L 374.894531 75.484375 L 321.691406 363.867188 L -27.910156 299.371094 Z M 25.292969 10.988281 " clip-rule="nonzero"/></clipPath><clipPath id="79067b6506"><path d="M 25.292969 10.988281 L 374.894531 75.484375 L 321.691406 363.867188 L -27.910156 299.371094 Z M 25.292969 10.988281 " clip-rule="nonzero"/></clipPath><clipPath id="62e343717f"><path d="M 223 266 L 259 266 L 259 293 L 223 293 Z M 223 266 " clip-rule="nonzero"/></clipPath><clipPath id="fe82e73699"><path d="M 25.292969 10.988281 L 374.894531 75.484375 L 321.691406 363.867188 L -27.910156 299.371094 Z M 25.292969 10.988281 " clip-rule="nonzero"/></clipPath><clipPath id="92ece97657"><path d="M 25.292969 10.988281 L 374.894531 75.484375 L 321.691406 363.867188 L -27.910156 299.371094 Z M 25.292969 10.988281 " clip-rule="nonzero"/></clipPath><clipPath id="ac9d87f07f"><path d="M 223 273 L 259 273 L 259 293 L 223 293 Z M 223 273 " clip-rule="nonzero"/></clipPath><clipPath id="4cbaf55c8f"><path d="M 25.292969 10.988281 L 374.894531 75.484375 L 321.691406 363.867188 L -27.910156 299.371094 Z M 25.292969 10.988281 " clip-rule="nonzero"/></clipPath><clipPath id="71c5a76226"><path d="M 25.292969 10.988281 L 374.894531 75.484375 L 321.691406 363.867188 L -27.910156 299.371094 Z M 25.292969 10.988281 " clip-rule="nonzero"/></clipPath><clipPath id="9ca8ecfd38"><path d="M 175 264 L 186 264 L 186 267.832031 L 175 267.832031 Z M 175 264 " clip-rule="nonzero"/></clipPath><clipPath id="794d3addc9"><path d="M 153.699219 213.082031 L 206 213.082031 L 206 265 L 153.699219 265 Z M 153.699219 213.082031 " clip-rule="nonzero"/></clipPath></defs><rect x="-37.5" width="450" fill="#ffffff" y="-37.499999" height="449.999989" fill-opacity="1"/><rect x="-37.5" width="450" fill="#ffffff" y="-37.499999" height="449.999989" fill-opacity="1"/><g clip-path="url(#c54d5e1973)"><g clip-path="url(#921df97249)"><g clip-path="url(#7fb4d6e8ad)"><path fill="#0085c8" d="M 272.550781 206.617188 C 271.359375 198.570312 276.015625 190.8125 281.820312 185.132812 C 283.648438 183.34375 285.625 181.671875 287.621094 180.070312 C 291.933594 176.601562 296.414062 173.367188 300.242188 169.359375 C 303.96875 165.480469 307.152344 160.425781 306.554688 155.101562 C 305.945312 149.558594 301.296875 145.144531 296.191406 142.835938 C 291.058594 140.566406 285.398438 139.882812 279.9375 138.617188 C 268.953125 136.03125 255.078125 130.425781 248.207031 120.945312 C 245.949219 117.785156 244.71875 113.707031 245.914062 110.023438 C 247.332031 105.660156 251.054688 101.636719 250.921875 96.832031 C 250.71875 89.796875 243.230469 85.730469 236.882812 87.144531 C 232.902344 88.035156 229.296875 90.15625 225.351562 91.152344 C 221.21875 92.214844 216.875 92.027344 212.636719 91.648438 C 207.078125 91.128906 201.394531 90.335938 196.546875 87.5625 C 185.871094 81.539062 183.582031 68.582031 174.449219 61.109375 C 169.027344 56.71875 161.511719 54.972656 154.707031 56.605469 C 147.902344 58.25 141.972656 63.144531 139.144531 69.574219 C 136.730469 75.003906 136.527344 81.210938 134.601562 86.84375 C 128.050781 105.984375 104.046875 94.90625 89.742188 100.125 C 72.964844 106.320312 62.949219 126.691406 68.335938 143.722656 C 70.125 149.382812 73.324219 154.539062 75.402344 160.09375 C 77.464844 165.699219 78.273438 172.242188 75.324219 177.425781 C 71.878906 183.496094 64.195312 186.1875 60.78125 192.25 C 57.257812 198.550781 60.054688 207.539062 66.542969 210.71875 C 73.765625 214.277344 94.253906 209.082031 94.679688 221.28125 C 94.769531 223.882812 93.824219 226.40625 92.964844 228.878906 C 91.929688 231.886719 90.972656 235.011719 90.800781 238.171875 C 90.632812 241.339844 91.296875 244.652344 93.203125 247.246094 C 95.640625 250.480469 99.8125 252.066406 103.867188 252.300781 C 109.058594 252.597656 127.746094 246.207031 127.960938 256.140625 C 128 257.929688 127.296875 259.621094 126.699219 261.28125 C 124.660156 266.992188 128.265625 272.324219 134.210938 273.578125 C 139.964844 274.796875 145.261719 271.207031 150.992188 271.449219 C 156.6875 271.695312 162.15625 273.910156 164.960938 279.152344 C 167.742188 284.332031 168.609375 290.378906 171.308594 295.589844 C 175.421875 303.613281 183.957031 306.808594 191.160156 301.074219 C 198.664062 295.164062 203.382812 286.441406 208.113281 278.28125 C 213.976562 268.148438 221.148438 257.550781 232.308594 254.082031 C 242.207031 250.980469 252.804688 254.3125 263.160156 254.800781 C 273.511719 255.289062 286.015625 250.847656 287.738281 240.609375 C 289.851562 228.117188 274.429688 219.183594 272.550781 206.617188 " fill-opacity="1" fill-rule="nonzero"/></g></g></g><g clip-path="url(#1f7d4245ce)"><g clip-path="url(#b76fa55256)"><g clip-path="url(#663bd822b0)"><path fill="#0085c8" d="M 245.28125 101.566406 C 244.40625 104.238281 244.832031 107.148438 246 109.746094 C 247.484375 105.507812 251.042969 101.566406 250.921875 96.832031 C 250.863281 95.152344 250.398438 93.601562 249.609375 92.292969 C 248.496094 95.476562 246.300781 98.40625 245.28125 101.566406 " fill-opacity="1" fill-rule="nonzero"/></g></g></g><g clip-path="url(#d8a6de15a6)"><g clip-path="url(#f4baa0993b)"><g clip-path="url(#bb2bae9c1d)"><path fill="#0085c8" d="M 299.601562 160.9375 C 295.78125 164.910156 291.296875 168.15625 286.984375 171.636719 C 284.980469 173.226562 283.019531 174.878906 281.171875 176.699219 C 275.386719 182.324219 270.714844 190.171875 271.921875 198.136719 C 272.066406 199.171875 272.304688 200.125 272.609375 201.085938 C 273.585938 195.121094 277.367188 189.484375 281.804688 185.164062 C 283.648438 183.34375 285.621094 181.695312 287.617188 180.101562 C 291.929688 176.625 296.414062 173.375 300.246094 169.347656 C 303.964844 165.511719 307.144531 160.46875 306.550781 155.121094 C 306.40625 153.84375 306.050781 152.566406 305.511719 151.414062 C 304.535156 154.953125 302.203125 158.191406 299.601562 160.9375 " fill-opacity="1" fill-rule="nonzero"/></g></g></g><g clip-path="url(#b832093c5d)"><g clip-path="url(#5b18e55549)"><g clip-path="url(#9aed4e0bb9)"><path fill="#0085c8" d="M 75.390625 160.136719 C 75.800781 161.261719 76.175781 162.382812 76.457031 163.589844 C 76.976562 159.621094 76.15625 155.453125 74.757812 151.691406 C 72.6875 146.09375 69.488281 140.9375 67.6875 135.289062 C 67.378906 134.28125 67.128906 133.28125 66.917969 132.292969 C 66.707031 136.160156 67.164062 140.003906 68.332031 143.734375 C 70.117188 149.425781 73.324219 154.539062 75.390625 160.136719 " fill-opacity="1" fill-rule="nonzero"/></g></g></g><g clip-path="url(#a73ff9c128)"><g clip-path="url(#15dd72a930)"><g clip-path="url(#c0e163dd4c)"><path fill="#0085c8" d="M 127.328125 247.6875 C 127.09375 237.78125 108.425781 244.152344 103.234375 243.835938 C 99.183594 243.589844 95.003906 242.023438 92.578125 238.746094 C 91.929688 237.886719 91.417969 236.953125 91.046875 235.933594 C 90.933594 236.664062 90.835938 237.4375 90.800781 238.171875 C 90.628906 241.363281 91.292969 244.664062 93.203125 247.246094 C 95.640625 250.46875 99.808594 252.078125 103.859375 252.332031 C 108.125 252.570312 121.503906 248.300781 126.261719 252.300781 C 126.792969 250.8125 127.355469 249.28125 127.328125 247.6875 " fill-opacity="1" fill-rule="nonzero"/></g></g></g><g clip-path="url(#20daf33ebe)"><g clip-path="url(#28b8fff33d)"><g clip-path="url(#f4d3bd4475)"><path fill="#0085c8" d="M 262.523438 246.359375 C 252.164062 245.890625 241.558594 242.589844 231.671875 245.648438 C 220.511719 249.117188 213.324219 259.734375 207.472656 269.859375 C 202.757812 278 198.023438 286.738281 190.507812 292.660156 C 183.320312 298.367188 174.773438 295.1875 170.667969 287.167969 C 167.972656 281.933594 167.105469 275.898438 164.324219 270.707031 C 161.519531 265.464844 156.050781 263.257812 150.347656 263.058594 C 144.617188 262.796875 139.339844 266.355469 133.554688 265.1875 C 130.640625 264.546875 128.28125 262.960938 126.882812 260.765625 C 126.816406 260.957031 126.757812 261.144531 126.699219 261.28125 C 124.652344 267.027344 128.257812 272.371094 134.207031 273.613281 C 139.957031 274.832031 145.25 271.273438 150.984375 271.480469 C 156.679688 271.738281 162.148438 273.941406 164.953125 279.195312 C 167.734375 284.386719 168.601562 290.421875 171.296875 295.644531 C 175.410156 303.621094 183.949219 306.84375 191.132812 301.148438 C 198.664062 295.164062 203.386719 286.429688 208.109375 278.292969 C 213.960938 268.167969 221.140625 257.59375 232.300781 254.125 C 242.195312 251.023438 252.804688 254.324219 263.152344 254.835938 C 273.507812 255.300781 286.007812 250.890625 287.738281 240.65625 C 288.191406 237.953125 287.828125 235.390625 286.957031 232.945312 C 284.753906 242.644531 272.621094 246.832031 262.523438 246.359375 " fill-opacity="1" fill-rule="nonzero"/></g></g></g><g clip-path="url(#d71ea50236)"><g clip-path="url(#1f1b85c147)"><g clip-path="url(#6d6a4a531d)"><path fill="#0085c8" d="M 93.410156 217.175781 C 93.808594 215.746094 94.085938 214.308594 94.027344 212.855469 C 93.609375 200.632812 73.132812 205.820312 65.902344 202.292969 C 62.976562 200.859375 60.804688 198.265625 59.621094 195.214844 C 58.164062 201.113281 61.011719 208.0625 66.53125 210.773438 C 72.753906 213.8125 88.796875 210.402344 93.410156 217.175781 " fill-opacity="1" fill-rule="nonzero"/></g></g></g><g clip-path="url(#93c2fe6dbd)"><g clip-path="url(#3d58cb9a76)"><g clip-path="url(#23e108444e)"><path fill="#0085c8" d="M 308.570312 206.308594 C 306.464844 213.476562 300.09375 217.910156 294.367188 216.203125 C 288.628906 214.539062 285.703125 207.339844 287.820312 200.175781 C 289.9375 193 296.296875 188.566406 302.027344 190.273438 C 307.761719 191.933594 310.6875 199.132812 308.570312 206.308594 " fill-opacity="1" fill-rule="nonzero"/></g></g></g><g clip-path="url(#7ea66ed652)"><g clip-path="url(#fe7f13ae3c)"><g clip-path="url(#223d31f16f)"><path fill="#0085c8" d="M 296.007812 210.640625 C 291.050781 209.175781 288.183594 203.601562 288.878906 197.472656 C 288.449219 198.34375 288.09375 199.230469 287.820312 200.175781 C 285.695312 207.382812 288.628906 214.527344 294.359375 216.234375 C 300.089844 217.941406 306.457031 213.519531 308.570312 206.308594 C 308.855469 205.367188 309.046875 204.394531 309.152344 203.460938 C 306.414062 208.957031 300.976562 212.105469 296.007812 210.640625 " fill-opacity="1" fill-rule="nonzero"/></g></g></g><g clip-path="url(#7f29dbf451)"><g clip-path="url(#fc16d62308)"><g clip-path="url(#80a68222dc)"><path fill="#0085c8" d="M 103.984375 78.332031 C 103.605469 80.375 101.640625 81.738281 99.585938 81.359375 C 97.527344 80.980469 96.167969 79.003906 96.546875 76.957031 C 96.925781 74.902344 98.898438 73.542969 100.957031 73.921875 C 103.011719 74.300781 104.363281 76.273438 103.984375 78.332031 " fill-opacity="1" fill-rule="nonzero"/></g></g></g><g clip-path="url(#9e78f470ac)"><g clip-path="url(#f06b31fd82)"><g clip-path="url(#00fb7a82fb)"><path fill="#0085c8" d="M 100.011719 79.042969 C 98.367188 78.738281 97.167969 77.410156 96.953125 75.847656 C 96.757812 76.171875 96.613281 76.601562 96.539062 76.992188 C 96.164062 79.039062 97.523438 81.011719 99.578125 81.390625 C 101.625 81.769531 103.597656 80.410156 103.976562 78.363281 C 104.046875 77.972656 104.066406 77.519531 104.011719 77.148438 C 103.242188 78.53125 101.65625 79.347656 100.011719 79.042969 " fill-opacity="1" fill-rule="nonzero"/></g></g></g><g clip-path="url(#aa32a22ba7)"><g clip-path="url(#e012a3c71f)"><g clip-path="url(#6411fd9a12)"><path fill="#0085c8" d="M 262.585938 74.550781 C 261.609375 79.855469 256.542969 83.339844 251.273438 82.367188 C 245.992188 81.394531 242.503906 76.328125 243.480469 71.023438 C 244.449219 65.773438 249.515625 62.289062 254.796875 63.261719 C 260.070312 64.234375 263.554688 69.300781 262.585938 74.550781 " fill-opacity="1" fill-rule="nonzero"/></g></g></g><g clip-path="url(#b4f2670e0d)"><g clip-path="url(#9266f1d0de)"><g clip-path="url(#e2531af149)"><path fill="#0085c8" d="M 262.347656 70.027344 C 260.5625 74.0625 256.210938 76.460938 251.710938 75.632812 C 247.984375 74.945312 245.160156 72.242188 244.164062 68.855469 C 243.851562 69.558594 243.621094 70.277344 243.484375 71.015625 C 242.503906 76.316406 245.996094 81.371094 251.277344 82.347656 C 256.546875 83.320312 261.609375 79.84375 262.589844 74.539062 C 262.871094 73.011719 262.761719 71.46875 262.347656 70.027344 " fill-opacity="1" fill-rule="nonzero"/></g></g></g><g clip-path="url(#77cc0cd34a)"><g clip-path="url(#26d636e3cf)"><g clip-path="url(#b274cdaa65)"><path fill="#0085c8" d="M 366.417969 122.917969 C 365.859375 125.949219 362.941406 127.941406 359.890625 127.375 C 356.847656 126.816406 354.832031 123.914062 355.390625 120.882812 C 355.957031 117.796875 358.878906 115.808594 361.917969 116.367188 C 364.972656 116.929688 366.988281 119.832031 366.417969 122.917969 " fill-opacity="1" fill-rule="nonzero"/></g></g></g><g clip-path="url(#0869f3ca3c)"><g clip-path="url(#cdc258c80c)"><g clip-path="url(#015b86e9eb)"><path fill="#0085c8" d="M 366.273438 120.304688 C 365.25 122.644531 362.738281 123.996094 360.140625 123.515625 C 358 123.121094 356.371094 121.566406 355.777344 119.632812 C 355.609375 120.003906 355.472656 120.4375 355.390625 120.871094 C 354.832031 123.902344 356.839844 126.859375 359.882812 127.421875 C 362.933594 127.984375 365.863281 125.9375 366.421875 122.90625 C 366.582031 122.03125 366.527344 121.113281 366.273438 120.304688 " fill-opacity="1" fill-rule="nonzero"/></g></g></g><g clip-path="url(#c9e692daf1)"><g clip-path="url(#d278775a66)"><g clip-path="url(#afca3a4eaf)"><path fill="#0085c8" d="M 276.394531 122.136719 C 275.839844 125.15625 272.910156 127.191406 269.871094 126.628906 C 266.828125 126.070312 264.808594 123.121094 265.367188 120.101562 C 265.925781 117.070312 268.863281 115.039062 271.902344 115.601562 C 274.945312 116.160156 276.953125 119.105469 276.394531 122.136719 " fill-opacity="1" fill-rule="nonzero"/></g></g></g><g clip-path="url(#837376c246)"><g clip-path="url(#0d5c10de3d)"><g clip-path="url(#bc89c57b53)"><path fill="#0085c8" d="M 276.257812 119.539062 C 275.226562 121.863281 272.714844 123.269531 270.109375 122.789062 C 267.976562 122.394531 266.339844 120.828125 265.753906 118.851562 C 265.59375 119.226562 265.445312 119.65625 265.367188 120.089844 C 264.796875 123.175781 266.828125 126.070312 269.871094 126.628906 C 272.910156 127.191406 275.828125 125.210938 276.398438 122.125 C 276.558594 121.25 276.503906 120.332031 276.257812 119.539062 " fill-opacity="1" fill-rule="nonzero"/></g></g></g><g clip-path="url(#95bc6e4d8a)"><g clip-path="url(#e762c4d329)"><g clip-path="url(#a8d3aeb343)"><path fill="#0085c8" d="M 49.113281 201.132812 C 48.554688 204.164062 45.632812 206.167969 42.59375 205.605469 C 39.539062 205.042969 37.535156 202.132812 38.09375 199.101562 C 38.664062 196.027344 41.574219 194.023438 44.625 194.585938 C 47.667969 195.148438 49.683594 198.058594 49.113281 201.132812 " fill-opacity="1" fill-rule="nonzero"/></g></g></g><g clip-path="url(#354c553da2)"><g clip-path="url(#6f4756137c)"><g clip-path="url(#2975d5137f)"><path fill="#0085c8" d="M 48.96875 198.519531 C 47.953125 200.820312 45.441406 202.246094 42.832031 201.765625 C 40.6875 201.371094 39.058594 199.828125 38.476562 197.828125 C 38.296875 198.242188 38.175781 198.667969 38.09375 199.101562 C 37.535156 202.132812 39.53125 205.085938 42.585938 205.648438 C 45.625 206.210938 48.554688 204.164062 49.113281 201.132812 C 49.28125 200.222656 49.21875 199.363281 48.96875 198.519531 " fill-opacity="1" fill-rule="nonzero"/></g></g></g><g clip-path="url(#e3ec1bbf55)"><g clip-path="url(#db1554f2cb)"><g clip-path="url(#56259fe5ec)"><path fill="#0085c8" d="M 220.476562 311.074219 C 219.914062 314.113281 216.996094 316.09375 213.953125 315.535156 C 210.902344 314.972656 208.882812 312.082031 209.445312 309.039062 C 210.007812 305.984375 212.933594 303.960938 215.984375 304.527344 C 219.027344 305.085938 221.039062 308.019531 220.476562 311.074219 " fill-opacity="1" fill-rule="nonzero"/></g></g></g><g clip-path="url(#572749a495)"><g clip-path="url(#949ab2428a)"><g clip-path="url(#ca1cb31d56)"><path fill="#0085c8" d="M 220.347656 308.417969 C 219.316406 310.738281 216.808594 312.144531 214.199219 311.660156 C 212.054688 311.265625 210.433594 309.691406 209.839844 307.757812 C 209.683594 308.121094 209.546875 308.542969 209.460938 309.019531 C 208.90625 312.015625 210.917969 314.953125 213.957031 315.511719 C 217 316.074219 219.925781 314.050781 220.480469 311.050781 C 220.648438 310.140625 220.589844 309.246094 220.347656 308.417969 " fill-opacity="1" fill-rule="nonzero"/></g></g></g><g clip-path="url(#58263a0bd4)"><g clip-path="url(#bf40323eff)"><g clip-path="url(#300c6a9a84)"><path fill="#0085c8" d="M 25.734375 84.570312 C 25.042969 88.324219 21.464844 90.796875 17.730469 90.109375 C 14.007812 89.421875 11.535156 85.832031 12.226562 82.078125 C 12.910156 78.375 16.5 75.902344 20.222656 76.589844 C 23.957031 77.277344 26.417969 80.867188 25.734375 84.570312 " fill-opacity="1" fill-rule="nonzero"/></g></g></g><g clip-path="url(#e6288c0bba)"><g clip-path="url(#6610a581fe)"><g clip-path="url(#26f071dfee)"><path fill="#0085c8" d="M 18.980469 87.464844 C 15.410156 87.207031 12.6875 84.242188 12.617188 80.75 C 12.449219 81.175781 12.316406 81.601562 12.226562 82.085938 C 11.53125 85.84375 14.007812 89.421875 17.730469 90.109375 C 21.464844 90.796875 25.042969 88.335938 25.734375 84.578125 C 25.8125 84.148438 25.859375 83.652344 25.84375 83.191406 C 24.757812 85.867188 22.027344 87.679688 18.980469 87.464844 " fill-opacity="1" fill-rule="nonzero"/></g></g></g><g clip-path="url(#7b40ebff74)"><g clip-path="url(#b17eba21fa)"><g clip-path="url(#8492aba076)"><path fill="#0085c8" d="M 61.714844 264.851562 C 61.46875 266.191406 60.171875 267.085938 58.808594 266.832031 C 57.445312 266.582031 56.542969 265.285156 56.789062 263.941406 C 57.042969 262.566406 58.351562 261.667969 59.714844 261.917969 C 61.078125 262.171875 61.96875 263.476562 61.714844 264.851562 " fill-opacity="1" fill-rule="nonzero"/></g></g></g><g clip-path="url(#56395a865d)"><g clip-path="url(#d0828dc33c)"><g clip-path="url(#c67a65c8b8)"><path fill="#0085c8" d="M 59.023438 265.675781 C 57.863281 265.460938 57.03125 264.523438 56.972656 263.371094 C 56.894531 263.558594 56.828125 263.746094 56.792969 263.929688 C 56.535156 265.316406 57.4375 266.625 58.800781 266.875 C 60.164062 267.128906 61.460938 266.226562 61.71875 264.839844 C 61.75 264.65625 61.765625 264.457031 61.746094 264.253906 C 61.285156 265.308594 60.179688 265.886719 59.023438 265.675781 " fill-opacity="1" fill-rule="nonzero"/></g></g></g><g clip-path="url(#15415a321f)"><g clip-path="url(#9f23d77a53)"><g clip-path="url(#5848d0767b)"><path fill="#0085c8" d="M 61.761719 106.4375 C 60.257812 114.578125 52.453125 119.941406 44.335938 118.445312 C 36.207031 116.945312 30.828125 109.148438 32.328125 101.007812 C 33.832031 92.867188 41.636719 87.503906 49.765625 89 C 57.882812 90.5 63.261719 98.296875 61.761719 106.4375 " fill-opacity="1" fill-rule="nonzero"/></g></g></g><g clip-path="url(#db409ced63)"><g clip-path="url(#fa6c85e36d)"><g clip-path="url(#875a0c786a)"><path fill="#0085c8" d="M 45.632812 111.398438 C 38.71875 110.121094 33.816406 104.292969 33.421875 97.570312 C 32.933594 98.632812 32.558594 99.773438 32.332031 100.996094 C 30.832031 109.125 36.203125 116.957031 44.332031 118.453125 C 52.449219 119.953125 60.261719 114.554688 61.761719 106.425781 C 61.988281 105.203125 62.042969 104.003906 61.964844 102.835938 C 59.199219 108.976562 52.539062 112.671875 45.632812 111.398438 " fill-opacity="1" fill-rule="nonzero"/></g></g></g><g clip-path="url(#fe84bca5ed)"><g clip-path="url(#7ab0874cdb)"><g clip-path="url(#0cbf861e7e)"><path fill="#0085c8" d="M 338.140625 152.859375 C 330.335938 155.558594 322.53125 153.503906 320.707031 148.230469 C 318.886719 142.992188 323.738281 136.523438 331.546875 133.820312 C 339.351562 131.121094 347.167969 133.167969 348.980469 138.449219 C 350.800781 143.6875 345.949219 150.15625 338.140625 152.859375 " fill-opacity="1" fill-rule="nonzero"/></g></g></g><g clip-path="url(#205b6efbdb)"><g clip-path="url(#537ffcbe09)"><g clip-path="url(#df81d26bf5)"><path fill="#0085c8" d="M 327.46875 145.917969 C 325.921875 141.445312 329.203125 136.152344 335.023438 132.984375 C 333.871094 133.175781 332.699219 133.464844 331.539062 133.855469 C 323.734375 136.554688 318.878906 143.023438 320.691406 148.304688 C 322.527344 153.535156 330.320312 155.632812 338.136719 152.890625 C 339.304688 152.5 340.394531 151.984375 341.410156 151.46875 C 334.898438 152.539062 329.015625 150.402344 327.46875 145.917969 " fill-opacity="1" fill-rule="nonzero"/></g></g></g><g clip-path="url(#140ac5289e)"><g clip-path="url(#c92d41bdd3)"><g clip-path="url(#79d3276247)"><path fill="#0085c8" d="M 198.523438 58.265625 C 198.054688 60.820312 195.574219 62.546875 193 62.070312 C 190.421875 61.59375 188.722656 59.097656 189.195312 56.542969 C 189.664062 53.988281 192.144531 52.265625 194.71875 52.738281 C 197.296875 53.214844 198.996094 55.710938 198.523438 58.265625 " fill-opacity="1" fill-rule="nonzero"/></g></g></g><g clip-path="url(#9a9e142a3d)"><g clip-path="url(#bc5e669b13)"><g clip-path="url(#ffb42e5ae0)"><path fill="#0085c8" d="M 193.410156 59.839844 C 191.222656 59.4375 189.671875 57.582031 189.535156 55.476562 C 189.386719 55.796875 189.261719 56.1875 189.1875 56.578125 C 188.714844 59.132812 190.417969 61.628906 192.992188 62.101562 C 195.570312 62.578125 198.046875 60.851562 198.519531 58.296875 C 198.589844 57.90625 198.609375 57.496094 198.585938 57.144531 C 197.714844 59.066406 195.597656 60.242188 193.410156 59.839844 " fill-opacity="1" fill-rule="nonzero"/></g></g></g><g clip-path="url(#1910fc9503)"><g clip-path="url(#96b7bbbe03)"><g clip-path="url(#fc801a2bcb)"><path fill="#0085c8" d="M 43.414062 173.253906 C 42.207031 179.78125 35.949219 184.109375 29.429688 182.90625 C 22.90625 181.703125 18.601562 175.425781 19.804688 168.898438 C 21.007812 162.382812 27.261719 158.085938 33.789062 159.289062 C 40.304688 160.492188 44.613281 166.738281 43.414062 173.253906 " fill-opacity="1" fill-rule="nonzero"/></g></g></g><g clip-path="url(#46815d84e4)"><g clip-path="url(#40a22020ec)"><g clip-path="url(#1e66c2c3f6)"><path fill="#0085c8" d="M 30.472656 177.257812 C 24.921875 176.230469 20.992188 171.558594 20.675781 166.171875 C 20.28125 167.039062 19.984375 167.933594 19.792969 168.953125 C 18.59375 175.457031 22.90625 181.691406 29.433594 182.894531 C 35.949219 184.097656 42.203125 179.8125 43.402344 173.308594 C 43.589844 172.289062 43.628906 171.34375 43.582031 170.394531 C 41.355469 175.3125 36.015625 178.277344 30.472656 177.257812 " fill-opacity="1" fill-rule="nonzero"/></g></g></g><g clip-path="url(#781036bc9c)"><g clip-path="url(#fa4e2dae9e)"><g clip-path="url(#c1721864a6)"><path fill="#0085c8" d="M 161.378906 307.917969 C 160.90625 310.480469 158.429688 312.195312 155.839844 311.71875 C 153.277344 311.246094 151.574219 308.761719 152.046875 306.195312 C 152.519531 303.628906 154.996094 301.914062 157.5625 302.386719 C 160.148438 302.867188 161.851562 305.351562 161.378906 307.917969 " fill-opacity="1" fill-rule="nonzero"/></g></g></g><g clip-path="url(#47aa8f08ea)"><g clip-path="url(#4469270592)"><g clip-path="url(#939c2511ab)"><path fill="#0085c8" d="M 156.246094 309.523438 C 154.058594 309.117188 152.511719 307.265625 152.390625 305.128906 C 152.222656 305.488281 152.117188 305.816406 152.046875 306.195312 C 151.5625 308.816406 153.265625 311.289062 155.832031 311.761719 C 158.410156 312.238281 160.882812 310.535156 161.367188 307.914062 C 161.4375 307.535156 161.445312 307.191406 161.429688 306.796875 C 160.550781 308.75 158.445312 309.925781 156.246094 309.523438 " fill-opacity="1" fill-rule="nonzero"/></g></g></g><g clip-path="url(#0a318c7774)"><g clip-path="url(#26b7fead7a)"><g clip-path="url(#8a8966d096)"><path fill="#0085c8" d="M 95.527344 271.054688 C 94.347656 277.453125 88.207031 281.660156 81.820312 280.480469 C 75.4375 279.300781 71.203125 273.183594 72.382812 266.785156 C 73.566406 260.378906 79.703125 256.171875 86.089844 257.347656 C 92.476562 258.527344 96.707031 264.644531 95.527344 271.054688 " fill-opacity="1" fill-rule="nonzero"/></g></g></g><g clip-path="url(#c41a3610f9)"><g clip-path="url(#b253a622a4)"><g clip-path="url(#0503a94122)"><path fill="#0085c8" d="M 82.84375 274.9375 C 77.410156 273.9375 73.550781 269.375 73.238281 264.089844 C 72.855469 264.957031 72.558594 265.832031 72.382812 266.796875 C 71.203125 273.191406 75.4375 279.300781 81.820312 280.480469 C 88.207031 281.660156 94.34375 277.460938 95.523438 271.066406 C 95.703125 270.101562 95.738281 269.179688 95.6875 268.230469 C 93.511719 273.054688 88.277344 275.941406 82.84375 274.9375 " fill-opacity="1" fill-rule="nonzero"/></g></g></g><g clip-path="url(#3ec76ab838)"><g clip-path="url(#9e24a173f2)"><g clip-path="url(#5f8b48c15b)"><path fill="#0085c8" d="M 310.78125 257.242188 C 309.949219 261.753906 306.027344 264.859375 302.054688 264.128906 C 298.0625 263.390625 295.519531 259.09375 296.351562 254.578125 C 297.1875 250.054688 301.09375 246.949219 305.089844 247.683594 C 309.0625 248.417969 311.617188 252.71875 310.78125 257.242188 " fill-opacity="1" fill-rule="nonzero"/></g></g></g><g clip-path="url(#60b67bebd7)"><g clip-path="url(#b0586cc4f9)"><g clip-path="url(#b82cecf8de)"><path fill="#0085c8" d="M 302.769531 260.207031 C 299.378906 259.582031 297.042969 256.417969 296.929688 252.671875 C 296.671875 253.273438 296.472656 253.929688 296.347656 254.601562 C 295.515625 259.113281 298.058594 263.410156 302.042969 264.148438 C 306.023438 264.882812 309.945312 261.777344 310.777344 257.261719 C 310.902344 256.59375 310.9375 255.90625 310.925781 255.253906 C 309.480469 258.714844 306.15625 260.832031 302.769531 260.207031 " fill-opacity="1" fill-rule="nonzero"/></g></g></g><g clip-path="url(#feede453f6)"><g clip-path="url(#f1653d8e78)"><g clip-path="url(#fe9bdbbb90)"><path fill="#0085c8" d="M 285.585938 64.621094 C 285.101562 67.230469 282.863281 69 280.578125 68.578125 C 278.292969 68.15625 276.832031 65.707031 277.3125 63.097656 C 277.796875 60.488281 280.035156 58.71875 282.320312 59.140625 C 284.605469 59.5625 286.066406 62.011719 285.585938 64.621094 " fill-opacity="1" fill-rule="nonzero"/></g></g></g><g clip-path="url(#c6591b4fec)"><g clip-path="url(#77d4df7257)"><g clip-path="url(#d6da9afd61)"><path fill="#0085c8" d="M 280.992188 66.339844 C 279.042969 65.980469 277.703125 64.152344 277.636719 62.015625 C 277.496094 62.347656 277.382812 62.730469 277.308594 63.117188 C 276.828125 65.726562 278.289062 68.179688 280.574219 68.601562 C 282.859375 69.023438 285.097656 67.253906 285.582031 64.644531 C 285.652344 64.253906 285.679688 63.855469 285.667969 63.496094 C 284.835938 65.46875 282.929688 66.695312 280.992188 66.339844 " fill-opacity="1" fill-rule="nonzero"/></g></g></g><g clip-path="url(#b78f77e96b)"><g clip-path="url(#816f5e2c5e)"><g clip-path="url(#3478e6f87c)"><path fill="#0085c8" d="M 197.738281 330.519531 C 196.765625 335.789062 191.699219 339.277344 186.417969 338.300781 C 181.144531 337.328125 177.660156 332.265625 178.632812 326.992188 C 179.605469 321.710938 184.671875 318.222656 189.941406 319.195312 C 195.226562 320.171875 198.710938 325.234375 197.738281 330.519531 " fill-opacity="1" fill-rule="nonzero"/></g></g></g><g clip-path="url(#b0cc2ee57e)"><g clip-path="url(#375d00e7c6)"><g clip-path="url(#79067b6506)"><path fill="#0085c8" d="M 186.980469 335.261719 C 182.214844 334.382812 178.914062 330.191406 179.03125 325.5 C 178.867188 325.960938 178.726562 326.472656 178.632812 326.992188 C 177.660156 332.265625 181.144531 337.328125 186.417969 338.300781 C 191.699219 339.277344 196.765625 335.789062 197.738281 330.519531 C 197.832031 330 197.886719 329.46875 197.898438 328.980469 C 196.332031 333.402344 191.742188 336.136719 186.980469 335.261719 " fill-opacity="1" fill-rule="nonzero"/></g></g></g><g clip-path="url(#62e343717f)"><g clip-path="url(#fe82e73699)"><g clip-path="url(#92ece97657)"><path fill="#0085c8" d="M 234.75 269.675781 C 225.84375 274.871094 221.554688 284.097656 225.164062 290.257812 C 228.765625 296.472656 236.042969 290.328125 246.121094 288.179688 C 258.523438 285.511719 261.011719 277.597656 257.394531 271.421875 C 253.785156 265.261719 243.644531 264.476562 234.75 269.675781 " fill-opacity="1" fill-rule="nonzero"/></g></g></g><g clip-path="url(#ac9d87f07f)"><g clip-path="url(#4cbaf55c8f)"><g clip-path="url(#71c5a76226)"><path fill="#0085c8" d="M 246.085938 281.816406 C 236.007812 283.964844 228.742188 290.101562 225.140625 283.898438 C 224.808594 283.34375 224.539062 282.742188 224.332031 282.15625 C 223.554688 285.035156 223.765625 287.894531 225.160156 290.28125 C 228.769531 296.441406 236.046875 290.308594 246.125 288.160156 C 257.203125 285.804688 260.371094 279.203125 258.332031 273.433594 C 257.007812 277.050781 253.160156 280.300781 246.085938 281.816406 " fill-opacity="1" fill-rule="nonzero"/></g></g></g><g clip-path="url(#9ca8ecfd38)"><path fill="#ffffff" d="M 180.851562 264.148438 C 178.074219 263.953125 175.992188 265.390625 175.992188 265.390625 C 177.667969 267.757812 180.851562 267.46875 180.851562 267.46875 C 180.851562 267.46875 184.027344 267.757812 185.707031 265.390625 C 185.707031 265.390625 183.625 263.953125 180.851562 264.148438 Z M 180.851562 264.148438 " fill-opacity="1" fill-rule="nonzero"/></g><path fill="#ffffff" d="M 174.953125 236.214844 C 173.675781 236.214844 172.640625 237.25 172.640625 238.527344 C 172.640625 239.804688 173.675781 240.839844 174.953125 240.839844 C 176.230469 240.839844 177.265625 239.804688 177.265625 238.527344 C 177.265625 237.25 176.230469 236.214844 174.953125 236.214844 Z M 174.953125 236.214844 " fill-opacity="1" fill-rule="nonzero"/><path fill="#ffffff" d="M 186.746094 240.839844 C 188.023438 240.839844 189.058594 239.804688 189.058594 238.527344 C 189.058594 237.25 188.023438 236.214844 186.746094 236.214844 C 185.46875 236.214844 184.433594 237.25 184.433594 238.527344 C 184.433594 239.804688 185.46875 240.839844 186.746094 240.839844 Z M 186.746094 240.839844 " fill-opacity="1" fill-rule="nonzero"/><path fill="#ffffff" d="M 179.101562 233.847656 C 180.519531 233.132812 182.304688 232.589844 182.09375 230.667969 C 181.863281 228.558594 179.882812 230.097656 178.660156 230.230469 C 178.65625 230.230469 175.339844 230.589844 175.992188 231.898438 C 176.558594 233.03125 177.660156 234.566406 179.101562 233.847656 Z M 179.101562 233.847656 " fill-opacity="1" fill-rule="nonzero"/><g clip-path="url(#794d3addc9)"><path fill="#ffffff" d="M 203.300781 233.214844 C 201.003906 232.972656 199.058594 231.308594 197.164062 230.140625 C 196.347656 229.640625 195.5 229.1875 194.617188 228.871094 C 197.667969 227.179688 199.160156 221.882812 198.511719 218.46875 C 198.253906 217.109375 197.777344 215.785156 197.144531 214.535156 C 196.9375 214.125 196.386719 213.53125 196.304688 213.082031 C 198.347656 223.742188 189.734375 226.542969 187.347656 227.105469 C 186.632812 227.074219 185.914062 227.125 185.203125 227.273438 C 186.078125 227.296875 186.9375 227.40625 187.765625 227.621094 L 188.714844 227.988281 C 187.753906 228.074219 186.578125 228.554688 186.308594 229.175781 C 185.746094 230.441406 187.21875 230.316406 188.03125 230.246094 C 189.410156 230.125 190.273438 229.90625 191.199219 231.066406 C 191.789062 231.800781 192.453125 232.535156 193.355469 232.488281 C 193.523438 232.910156 193.660156 233.339844 193.75 233.792969 C 194.011719 235.097656 193.933594 236.445312 194.113281 237.761719 C 194.292969 239.125 194.804688 240.402344 195.605469 241.519531 C 196.058594 242.148438 196.597656 242.699219 197.09375 243.289062 C 197.019531 243.300781 196.953125 243.304688 196.914062 243.300781 C 195.824219 243.152344 195.191406 242.066406 194.144531 241.863281 C 193.078125 241.65625 191.339844 242.585938 191 243.640625 C 190.230469 246.027344 194.023438 246.230469 195.339844 246.773438 C 197.652344 247.734375 197.007812 249.667969 197.289062 251.613281 C 197.515625 253.1875 198.53125 253.808594 199.785156 253.5625 C 199.640625 254.132812 199.4375 254.691406 199.167969 255.226562 C 198.394531 256.769531 197.164062 258.074219 195.855469 259.234375 C 196.601562 257.085938 196.847656 254.066406 195.929688 251.9375 C 194.402344 248.398438 190.691406 246.148438 186.816406 247.070312 C 186.476562 247.152344 183.015625 247.988281 180.855469 248.25 C 178.691406 247.988281 175.234375 247.152344 174.894531 247.070312 C 171.019531 246.148438 167.308594 248.398438 165.78125 251.9375 C 164.875 254.035156 165.101562 256.992188 165.820312 259.136719 C 164.328125 258.171875 163.011719 256.972656 162.136719 255.363281 C 161.261719 253.746094 160.964844 251.972656 161.074219 250.203125 C 163.546875 250.40625 164.875 249.183594 164.878906 246.605469 C 164.882812 244.175781 166.859375 244.304688 168.558594 243.546875 C 169.886719 242.957031 170.28125 241.925781 169.738281 240.636719 C 169.257812 239.5 168.0625 238.914062 167.539062 237.796875 C 167.023438 236.695312 167.019531 235.410156 167.085938 234.222656 C 167.101562 233.957031 167.1875 232.992188 167.34375 231.992188 C 167.679688 231.261719 168.144531 230.597656 168.726562 230.011719 C 169.011719 229.722656 169.320312 229.464844 169.640625 229.222656 C 170.011719 229.296875 170.46875 229.453125 171.023438 229.738281 C 171.023438 229.738281 172.640625 231.625 174.492188 229.449219 C 174.492188 229.449219 174.875 228.429688 176.570312 228.429688 C 176.570312 228.429688 179.5 228.476562 178.421875 227.066406 C 178.421875 227.066406 177.769531 226.785156 176.660156 226.664062 C 178.644531 226.445312 180.625 226.589844 182.582031 227.042969 C 179.378906 225.679688 175.574219 225.429688 172.183594 226.4375 C 169.140625 225.480469 163.164062 222.390625 164.949219 213.082031 C 164.867188 213.53125 164.316406 214.125 164.109375 214.535156 C 163.476562 215.785156 163 217.109375 162.742188 218.46875 C 162.0625 222.03125 163.71875 227.636719 167.039062 229.066406 C 165.0625 229.242188 163.269531 230.328125 161.578125 231.417969 C 159.976562 232.453125 158.15625 233.8125 156.164062 233.851562 C 155.355469 233.871094 154.542969 233.78125 153.734375 233.730469 C 154.171875 234.25 154.589844 234.804688 155.070312 235.285156 C 156.195312 236.402344 157.683594 237.203125 159.246094 237.476562 C 161.152344 237.816406 162.996094 237.359375 164.621094 236.445312 C 164.597656 236.535156 164.582031 236.625 164.558594 236.71875 C 163.917969 239.28125 162.210938 241.421875 161.074219 243.777344 C 159.875 246.261719 159.210938 249.082031 159.578125 251.839844 C 159.9375 254.519531 161.359375 256.921875 163.535156 258.527344 C 164.351562 259.128906 165.238281 259.605469 166.164062 259.996094 C 167.957031 263.945312 172.195312 265.101562 176.261719 263.960938 C 176.261719 263.960938 177.226562 263.382812 179.167969 263.148438 C 179.667969 263.097656 182.042969 263.097656 182.539062 263.148438 C 184.484375 263.382812 185.445312 263.960938 185.445312 263.960938 C 189.589844 265.121094 193.910156 263.902344 195.640625 259.773438 C 197.289062 258.816406 198.832031 257.617188 199.9375 256.074219 C 201.464844 253.941406 201.886719 251.210938 201.484375 248.660156 C 201.070312 246.03125 199.835938 243.546875 198.058594 241.570312 C 197.386719 240.820312 196.75 240.070312 196.328125 239.140625 C 195.867188 238.109375 195.761719 236.992188 195.648438 235.882812 C 197.820312 237.046875 200.351562 237.214844 202.617188 236.089844 C 204.023438 235.386719 204.964844 234.320312 205.960938 233.152344 C 205.082031 233.195312 204.175781 233.308594 203.300781 233.214844 Z M 160.546875 236.539062 C 159.273438 236.414062 157.976562 235.898438 156.925781 235.109375 C 159.6875 234.625 161.867188 232.554688 164.164062 230.933594 C 165.082031 230.28125 166.023438 229.789062 167.046875 229.488281 C 166.375 230.222656 165.832031 231.0625 165.5 231.996094 C 165.03125 233.25 164.960938 234.566406 164.734375 235.859375 C 163.402344 236.367188 162.03125 236.691406 160.546875 236.539062 Z M 172.640625 258.335938 C 170.980469 258.335938 169.632812 256.988281 169.632812 255.332031 C 169.632812 253.671875 170.980469 252.324219 172.640625 252.324219 C 174.300781 252.324219 175.644531 253.671875 175.644531 255.332031 C 175.644531 256.988281 174.300781 258.335938 172.640625 258.335938 Z M 189.171875 258.628906 C 187.511719 258.628906 186.167969 257.28125 186.167969 255.621094 C 186.167969 253.960938 187.511719 252.617188 189.171875 252.617188 C 190.832031 252.617188 192.179688 253.960938 192.179688 255.621094 C 192.179688 257.28125 190.832031 258.628906 189.171875 258.628906 Z M 199.429688 236 C 198.117188 236.164062 196.886719 236.03125 195.632812 235.722656 C 195.613281 235.546875 195.597656 235.375 195.578125 235.199219 C 195.316406 232.972656 194.433594 230.921875 192.832031 229.40625 C 193.125 229.386719 193.410156 229.335938 193.683594 229.257812 C 194.171875 229.476562 194.652344 229.734375 195.125 230.042969 C 197.613281 231.710938 199.894531 234.035156 202.863281 234.503906 C 201.863281 235.273438 200.636719 235.769531 199.429688 236 Z M 199.429688 236 " fill-opacity="1" fill-rule="nonzero"/></g><g fill="#004aad" fill-opacity="0.4"><g transform="translate(143.484561, 163.763295)"><g><path d="M 17.203125 -42.546875 C 17.484375 -41.648438 17.679688 -40.242188 17.796875 -38.328125 C 17.910156 -36.410156 17.96875 -34.210938 17.96875 -31.734375 C 17.96875 -28.972656 17.910156 -25.953125 17.796875 -22.671875 C 17.679688 -19.398438 17.53125 -16.113281 17.34375 -12.8125 C 17.15625 -9.507812 16.953125 -6.347656 16.734375 -3.328125 C 16.523438 -0.316406 16.328125 2.34375 16.140625 4.65625 C 15.953125 6.976562 15.789062 8.75 15.65625 9.96875 C 15.65625 10.0625 15.640625 10.164062 15.609375 10.28125 C 15.585938 10.394531 15.578125 10.5 15.578125 10.59375 C 15.578125 11.71875 16.210938 12.445312 17.484375 12.78125 C 18.648438 13.101562 20.003906 13.394531 21.546875 13.65625 C 23.097656 13.914062 24.679688 14.160156 26.296875 14.390625 C 27.910156 14.628906 29.40625 14.910156 30.78125 15.234375 C 32.164062 15.554688 33.289062 15.953125 34.15625 16.421875 C 35.019531 16.890625 35.453125 17.5 35.453125 18.25 C 35.398438 18.8125 35.1875 19.222656 34.8125 19.484375 C 34.445312 19.742188 34.003906 19.921875 33.484375 20.015625 C 30.628906 20.285156 27.945312 20.523438 25.4375 20.734375 C 22.9375 20.953125 20.613281 21.0625 18.46875 21.0625 C 14.957031 21.0625 12.085938 20.648438 9.859375 19.828125 C 7.640625 19.015625 6.269531 17.503906 5.75 15.296875 C 5.375 13.898438 4.960938 11.738281 4.515625 8.8125 C 4.078125 5.882812 3.660156 2.492188 3.265625 -1.359375 C 2.867188 -5.222656 2.539062 -9.332031 2.28125 -13.6875 C 2.019531 -18.039062 1.890625 -22.347656 1.890625 -26.609375 C 1.890625 -29.460938 1.957031 -32.234375 2.09375 -34.921875 C 2.238281 -37.617188 2.476562 -40.113281 2.8125 -42.40625 C 3.039062 -43.851562 3.914062 -45.019531 5.4375 -45.90625 C 6.957031 -46.800781 8.582031 -47.25 10.3125 -47.25 C 11.8125 -47.25 13.203125 -46.882812 14.484375 -46.15625 C 15.773438 -45.4375 16.679688 -44.234375 17.203125 -42.546875 Z M 17.203125 -42.546875 "/></g></g></g><g fill="#004aad" fill-opacity="0.4"><g transform="translate(182.932067, 163.763295)"><g><path d="M 17.203125 -42.546875 C 17.484375 -41.648438 17.679688 -40.242188 17.796875 -38.328125 C 17.910156 -36.410156 17.96875 -34.210938 17.96875 -31.734375 C 17.96875 -28.972656 17.910156 -25.953125 17.796875 -22.671875 C 17.679688 -19.398438 17.53125 -16.113281 17.34375 -12.8125 C 17.15625 -9.507812 16.953125 -6.347656 16.734375 -3.328125 C 16.523438 -0.316406 16.328125 2.34375 16.140625 4.65625 C 15.953125 6.976562 15.789062 8.75 15.65625 9.96875 C 15.65625 10.0625 15.640625 10.164062 15.609375 10.28125 C 15.585938 10.394531 15.578125 10.5 15.578125 10.59375 C 15.578125 11.71875 16.210938 12.445312 17.484375 12.78125 C 18.648438 13.101562 20.003906 13.394531 21.546875 13.65625 C 23.097656 13.914062 24.679688 14.160156 26.296875 14.390625 C 27.910156 14.628906 29.40625 14.910156 30.78125 15.234375 C 32.164062 15.554688 33.289062 15.953125 34.15625 16.421875 C 35.019531 16.890625 35.453125 17.5 35.453125 18.25 C 35.398438 18.8125 35.1875 19.222656 34.8125 19.484375 C 34.445312 19.742188 34.003906 19.921875 33.484375 20.015625 C 30.628906 20.285156 27.945312 20.523438 25.4375 20.734375 C 22.9375 20.953125 20.613281 21.0625 18.46875 21.0625 C 14.957031 21.0625 12.085938 20.648438 9.859375 19.828125 C 7.640625 19.015625 6.269531 17.503906 5.75 15.296875 C 5.375 13.898438 4.960938 11.738281 4.515625 8.8125 C 4.078125 5.882812 3.660156 2.492188 3.265625 -1.359375 C 2.867188 -5.222656 2.539062 -9.332031 2.28125 -13.6875 C 2.019531 -18.039062 1.890625 -22.347656 1.890625 -26.609375 C 1.890625 -29.460938 1.957031 -32.234375 2.09375 -34.921875 C 2.238281 -37.617188 2.476562 -40.113281 2.8125 -42.40625 C 3.039062 -43.851562 3.914062 -45.019531 5.4375 -45.90625 C 6.957031 -46.800781 8.582031 -47.25 10.3125 -47.25 C 11.8125 -47.25 13.203125 -46.882812 14.484375 -46.15625 C 15.773438 -45.4375 16.679688 -44.234375 17.203125 -42.546875 Z M 17.203125 -42.546875 "/></g></g></g><g fill="#ffffff" fill-opacity="1"><g transform="translate(140.381884, 160.660616)"><g><path d="M 17.203125 -42.546875 C 17.484375 -41.648438 17.679688 -40.242188 17.796875 -38.328125 C 17.910156 -36.410156 17.96875 -34.210938 17.96875 -31.734375 C 17.96875 -28.972656 17.910156 -25.953125 17.796875 -22.671875 C 17.679688 -19.398438 17.53125 -16.113281 17.34375 -12.8125 C 17.15625 -9.507812 16.953125 -6.347656 16.734375 -3.328125 C 16.523438 -0.316406 16.328125 2.34375 16.140625 4.65625 C 15.953125 6.976562 15.789062 8.75 15.65625 9.96875 C 15.65625 10.0625 15.640625 10.164062 15.609375 10.28125 C 15.585938 10.394531 15.578125 10.5 15.578125 10.59375 C 15.578125 11.71875 16.210938 12.445312 17.484375 12.78125 C 18.648438 13.101562 20.003906 13.394531 21.546875 13.65625 C 23.097656 13.914062 24.679688 14.160156 26.296875 14.390625 C 27.910156 14.628906 29.40625 14.910156 30.78125 15.234375 C 32.164062 15.554688 33.289062 15.953125 34.15625 16.421875 C 35.019531 16.890625 35.453125 17.5 35.453125 18.25 C 35.398438 18.8125 35.1875 19.222656 34.8125 19.484375 C 34.445312 19.742188 34.003906 19.921875 33.484375 20.015625 C 30.628906 20.285156 27.945312 20.523438 25.4375 20.734375 C 22.9375 20.953125 20.613281 21.0625 18.46875 21.0625 C 14.957031 21.0625 12.085938 20.648438 9.859375 19.828125 C 7.640625 19.015625 6.269531 17.503906 5.75 15.296875 C 5.375 13.898438 4.960938 11.738281 4.515625 8.8125 C 4.078125 5.882812 3.660156 2.492188 3.265625 -1.359375 C 2.867188 -5.222656 2.539062 -9.332031 2.28125 -13.6875 C 2.019531 -18.039062 1.890625 -22.347656 1.890625 -26.609375 C 1.890625 -29.460938 1.957031 -32.234375 2.09375 -34.921875 C 2.238281 -37.617188 2.476562 -40.113281 2.8125 -42.40625 C 3.039062 -43.851562 3.914062 -45.019531 5.4375 -45.90625 C 6.957031 -46.800781 8.582031 -47.25 10.3125 -47.25 C 11.8125 -47.25 13.203125 -46.882812 14.484375 -46.15625 C 15.773438 -45.4375 16.679688 -44.234375 17.203125 -42.546875 Z M 17.203125 -42.546875 "/></g></g></g><g fill="#ffffff" fill-opacity="1"><g transform="translate(179.82939, 160.660616)"><g><path d="M 17.203125 -42.546875 C 17.484375 -41.648438 17.679688 -40.242188 17.796875 -38.328125 C 17.910156 -36.410156 17.96875 -34.210938 17.96875 -31.734375 C 17.96875 -28.972656 17.910156 -25.953125 17.796875 -22.671875 C 17.679688 -19.398438 17.53125 -16.113281 17.34375 -12.8125 C 17.15625 -9.507812 16.953125 -6.347656 16.734375 -3.328125 C 16.523438 -0.316406 16.328125 2.34375 16.140625 4.65625 C 15.953125 6.976562 15.789062 8.75 15.65625 9.96875 C 15.65625 10.0625 15.640625 10.164062 15.609375 10.28125 C 15.585938 10.394531 15.578125 10.5 15.578125 10.59375 C 15.578125 11.71875 16.210938 12.445312 17.484375 12.78125 C 18.648438 13.101562 20.003906 13.394531 21.546875 13.65625 C 23.097656 13.914062 24.679688 14.160156 26.296875 14.390625 C 27.910156 14.628906 29.40625 14.910156 30.78125 15.234375 C 32.164062 15.554688 33.289062 15.953125 34.15625 16.421875 C 35.019531 16.890625 35.453125 17.5 35.453125 18.25 C 35.398438 18.8125 35.1875 19.222656 34.8125 19.484375 C 34.445312 19.742188 34.003906 19.921875 33.484375 20.015625 C 30.628906 20.285156 27.945312 20.523438 25.4375 20.734375 C 22.9375 20.953125 20.613281 21.0625 18.46875 21.0625 C 14.957031 21.0625 12.085938 20.648438 9.859375 19.828125 C 7.640625 19.015625 6.269531 17.503906 5.75 15.296875 C 5.375 13.898438 4.960938 11.738281 4.515625 8.8125 C 4.078125 5.882812 3.660156 2.492188 3.265625 -1.359375 C 2.867188 -5.222656 2.539062 -9.332031 2.28125 -13.6875 C 2.019531 -18.039062 1.890625 -22.347656 1.890625 -26.609375 C 1.890625 -29.460938 1.957031 -32.234375 2.09375 -34.921875 C 2.238281 -37.617188 2.476562 -40.113281 2.8125 -42.40625 C 3.039062 -43.851562 3.914062 -45.019531 5.4375 -45.90625 C 6.957031 -46.800781 8.582031 -47.25 10.3125 -47.25 C 11.8125 -47.25 13.203125 -46.882812 14.484375 -46.15625 C 15.773438 -45.4375 16.679688 -44.234375 17.203125 -42.546875 Z M 17.203125 -42.546875 "/></g></g></g><g fill="#fffef0" fill-opacity="1"><g transform="translate(147.354882, 207.708621)"><g><path d="M 6.09375 -0.984375 C 6.238281 -0.960938 6.351562 -0.898438 6.4375 -0.796875 C 6.519531 -0.703125 6.5625 -0.585938 6.5625 -0.453125 C 6.5625 -0.328125 6.507812 -0.21875 6.40625 -0.125 C 6.300781 -0.0390625 6.179688 0 6.046875 0 L 6.015625 0 L 1.5625 -0.25 C 1.425781 -0.257812 1.320312 -0.3125 1.25 -0.40625 C 1.175781 -0.5 1.128906 -0.597656 1.109375 -0.703125 C 1.078125 -0.867188 1.0625 -1.050781 1.0625 -1.25 C 1.0625 -1.445312 1.0625 -1.632812 1.0625 -1.8125 C 1.039062 -2.21875 1.023438 -2.625 1.015625 -3.03125 C 1.003906 -3.445312 1 -3.859375 1 -4.265625 C 1 -5.734375 1.050781 -7.195312 1.15625 -8.65625 C 1.15625 -8.757812 1.160156 -8.863281 1.171875 -8.96875 C 1.179688 -9.070312 1.203125 -9.171875 1.234375 -9.265625 C 1.265625 -9.359375 1.316406 -9.429688 1.390625 -9.484375 C 1.460938 -9.546875 1.5625 -9.578125 1.6875 -9.578125 C 1.832031 -9.578125 1.953125 -9.523438 2.046875 -9.421875 C 2.140625 -9.316406 2.1875 -9.203125 2.1875 -9.078125 L 2.1875 -9.046875 C 2.132812 -8.242188 2.085938 -7.445312 2.046875 -6.65625 C 2.015625 -5.863281 2 -5.070312 2 -4.28125 C 2 -3.257812 2.023438 -2.238281 2.078125 -1.21875 Z M 6.09375 -0.984375 "/></g></g></g><g fill="#fffef0" fill-opacity="1"><g transform="translate(154.814153, 207.708621)"><g><path d="M 1.515625 -0.296875 C 1.421875 -0.0976562 1.265625 0 1.046875 0 C 0.898438 0 0.78125 -0.046875 0.6875 -0.140625 C 0.59375 -0.242188 0.546875 -0.359375 0.546875 -0.484375 C 0.546875 -0.554688 0.554688 -0.617188 0.578125 -0.671875 L 4.15625 -9.265625 C 4.1875 -9.359375 4.242188 -9.429688 4.328125 -9.484375 C 4.421875 -9.546875 4.515625 -9.578125 4.609375 -9.578125 C 4.722656 -9.578125 4.816406 -9.546875 4.890625 -9.484375 C 4.972656 -9.429688 5.035156 -9.359375 5.078125 -9.265625 L 8.4375 -0.78125 C 8.457031 -0.726562 8.46875 -0.671875 8.46875 -0.609375 C 8.46875 -0.484375 8.421875 -0.367188 8.328125 -0.265625 C 8.234375 -0.160156 8.113281 -0.109375 7.96875 -0.109375 C 7.863281 -0.109375 7.765625 -0.132812 7.671875 -0.1875 C 7.585938 -0.25 7.53125 -0.332031 7.5 -0.4375 L 6.5 -2.953125 C 5.84375 -2.929688 5.1875 -2.914062 4.53125 -2.90625 C 3.882812 -2.90625 3.234375 -2.894531 2.578125 -2.875 Z M 4.59375 -7.75 L 2.984375 -3.890625 C 3.515625 -3.890625 4.035156 -3.890625 4.546875 -3.890625 C 5.066406 -3.890625 5.585938 -3.898438 6.109375 -3.921875 Z M 4.59375 -7.75 "/></g></g></g><g fill="#fffef0" fill-opacity="1"><g transform="translate(163.843802, 207.708621)"><g><path d="M 2.0625 -1.40625 C 1.601562 -1.914062 1.25 -2.488281 1 -3.125 C 0.757812 -3.757812 0.640625 -4.410156 0.640625 -5.078125 C 0.640625 -5.648438 0.734375 -6.207031 0.921875 -6.75 C 1.117188 -7.289062 1.394531 -7.769531 1.75 -8.1875 C 2.101562 -8.613281 2.53125 -8.953125 3.03125 -9.203125 C 3.53125 -9.453125 4.085938 -9.578125 4.703125 -9.578125 C 4.960938 -9.578125 5.234375 -9.539062 5.515625 -9.46875 C 5.796875 -9.394531 6.0625 -9.296875 6.3125 -9.171875 C 6.570312 -9.046875 6.804688 -8.890625 7.015625 -8.703125 C 7.222656 -8.523438 7.398438 -8.320312 7.546875 -8.09375 C 7.609375 -8 7.640625 -7.90625 7.640625 -7.8125 C 7.640625 -7.6875 7.59375 -7.570312 7.5 -7.46875 C 7.40625 -7.375 7.28125 -7.328125 7.125 -7.328125 C 7.03125 -7.328125 6.953125 -7.34375 6.890625 -7.375 C 6.835938 -7.40625 6.78125 -7.453125 6.71875 -7.515625 C 6.507812 -7.804688 6.253906 -8.046875 5.953125 -8.234375 C 5.648438 -8.421875 5.316406 -8.535156 4.953125 -8.578125 C 4.910156 -8.578125 4.867188 -8.578125 4.828125 -8.578125 C 4.785156 -8.585938 4.742188 -8.59375 4.703125 -8.59375 C 4.222656 -8.59375 3.796875 -8.488281 3.421875 -8.28125 C 3.054688 -8.082031 2.738281 -7.816406 2.46875 -7.484375 C 2.195312 -7.148438 1.988281 -6.769531 1.84375 -6.34375 C 1.707031 -5.925781 1.640625 -5.503906 1.640625 -5.078125 C 1.640625 -4.535156 1.738281 -4 1.9375 -3.46875 C 2.144531 -2.945312 2.4375 -2.484375 2.8125 -2.078125 C 3.09375 -1.773438 3.421875 -1.515625 3.796875 -1.296875 C 4.179688 -1.085938 4.585938 -0.984375 5.015625 -0.984375 C 5.703125 -0.984375 6.257812 -1.257812 6.6875 -1.8125 C 6.726562 -1.875 6.78125 -1.925781 6.84375 -1.96875 C 6.90625 -2.007812 6.988281 -2.03125 7.09375 -2.03125 C 7.25 -2.03125 7.367188 -1.976562 7.453125 -1.875 C 7.546875 -1.769531 7.59375 -1.65625 7.59375 -1.53125 C 7.59375 -1.4375 7.566406 -1.347656 7.515625 -1.265625 C 7.390625 -1.054688 7.234375 -0.875 7.046875 -0.71875 C 6.867188 -0.5625 6.664062 -0.425781 6.4375 -0.3125 C 6.21875 -0.207031 5.984375 -0.128906 5.734375 -0.078125 C 5.492188 -0.0234375 5.253906 0 5.015625 0 C 4.441406 0 3.898438 -0.132812 3.390625 -0.40625 C 2.878906 -0.675781 2.4375 -1.007812 2.0625 -1.40625 Z M 2.0625 -1.40625 "/></g></g></g><g fill="#fffef0" fill-opacity="1"><g transform="translate(172.507931, 207.708621)"><g><path d="M 1.265625 -8.59375 C 1.117188 -8.59375 1 -8.644531 0.90625 -8.75 C 0.820312 -8.851562 0.78125 -8.96875 0.78125 -9.09375 C 0.78125 -9.21875 0.828125 -9.328125 0.921875 -9.421875 C 1.023438 -9.523438 1.148438 -9.578125 1.296875 -9.578125 L 7.625 -9.421875 C 7.769531 -9.421875 7.890625 -9.367188 7.984375 -9.265625 C 8.078125 -9.160156 8.125 -9.046875 8.125 -8.921875 C 8.125 -8.796875 8.070312 -8.679688 7.96875 -8.578125 C 7.875 -8.484375 7.753906 -8.4375 7.609375 -8.4375 C 7.128906 -8.4375 6.648438 -8.441406 6.171875 -8.453125 C 5.703125 -8.472656 5.226562 -8.492188 4.75 -8.515625 L 4.828125 -0.5 C 4.828125 -0.375 4.78125 -0.257812 4.6875 -0.15625 C 4.59375 -0.0507812 4.472656 0 4.328125 0 C 4.171875 0 4.046875 -0.046875 3.953125 -0.140625 C 3.867188 -0.242188 3.828125 -0.359375 3.828125 -0.484375 L 3.75 -8.53125 Z M 1.265625 -8.59375 "/></g></g></g><g fill="#fffef0" fill-opacity="1"><g transform="translate(181.388664, 207.708621)"><g><path d="M 2.390625 -8.5625 L 1.453125 -8.5625 C 1.304688 -8.5625 1.1875 -8.609375 1.09375 -8.703125 C 1 -8.804688 0.953125 -8.921875 0.953125 -9.046875 C 0.953125 -9.171875 0.992188 -9.285156 1.078125 -9.390625 C 1.171875 -9.492188 1.296875 -9.546875 1.453125 -9.546875 C 1.972656 -9.546875 2.488281 -9.550781 3 -9.5625 C 3.519531 -9.570312 4.046875 -9.578125 4.578125 -9.578125 C 4.722656 -9.578125 4.84375 -9.523438 4.9375 -9.421875 C 5.03125 -9.328125 5.078125 -9.21875 5.078125 -9.09375 C 5.078125 -8.96875 5.03125 -8.851562 4.9375 -8.75 C 4.84375 -8.644531 4.722656 -8.59375 4.578125 -8.59375 L 3.390625 -8.578125 L 3.40625 -1.046875 C 3.59375 -1.054688 3.785156 -1.0625 3.984375 -1.0625 C 4.179688 -1.0625 4.378906 -1.0625 4.578125 -1.0625 C 4.722656 -1.0625 4.84375 -1.007812 4.9375 -0.90625 C 5.03125 -0.800781 5.078125 -0.6875 5.078125 -0.5625 C 5.078125 -0.4375 5.03125 -0.320312 4.9375 -0.21875 C 4.84375 -0.113281 4.722656 -0.0625 4.578125 -0.0625 C 4.046875 -0.0507812 3.519531 -0.046875 3 -0.046875 C 2.488281 -0.046875 1.972656 -0.046875 1.453125 -0.046875 C 1.304688 -0.046875 1.1875 -0.09375 1.09375 -0.1875 C 1 -0.289062 0.953125 -0.40625 0.953125 -0.53125 C 0.953125 -0.65625 0.992188 -0.769531 1.078125 -0.875 C 1.171875 -0.976562 1.296875 -1.03125 1.453125 -1.03125 L 2.40625 -1.046875 Z M 2.390625 -8.5625 "/></g></g></g><g fill="#fffef0" fill-opacity="1"><g transform="translate(187.23695, 207.708621)"><g><path d="M 6.09375 -0.984375 C 6.238281 -0.960938 6.351562 -0.898438 6.4375 -0.796875 C 6.519531 -0.703125 6.5625 -0.585938 6.5625 -0.453125 C 6.5625 -0.328125 6.507812 -0.21875 6.40625 -0.125 C 6.300781 -0.0390625 6.179688 0 6.046875 0 L 6.015625 0 L 1.5625 -0.25 C 1.425781 -0.257812 1.320312 -0.3125 1.25 -0.40625 C 1.175781 -0.5 1.128906 -0.597656 1.109375 -0.703125 C 1.078125 -0.867188 1.0625 -1.050781 1.0625 -1.25 C 1.0625 -1.445312 1.0625 -1.632812 1.0625 -1.8125 C 1.039062 -2.21875 1.023438 -2.625 1.015625 -3.03125 C 1.003906 -3.445312 1 -3.859375 1 -4.265625 C 1 -5.734375 1.050781 -7.195312 1.15625 -8.65625 C 1.15625 -8.757812 1.160156 -8.863281 1.171875 -8.96875 C 1.179688 -9.070312 1.203125 -9.171875 1.234375 -9.265625 C 1.265625 -9.359375 1.316406 -9.429688 1.390625 -9.484375 C 1.460938 -9.546875 1.5625 -9.578125 1.6875 -9.578125 C 1.832031 -9.578125 1.953125 -9.523438 2.046875 -9.421875 C 2.140625 -9.316406 2.1875 -9.203125 2.1875 -9.078125 L 2.1875 -9.046875 C 2.132812 -8.242188 2.085938 -7.445312 2.046875 -6.65625 C 2.015625 -5.863281 2 -5.070312 2 -4.28125 C 2 -3.257812 2.023438 -2.238281 2.078125 -1.21875 Z M 6.09375 -0.984375 "/></g></g></g><g fill="#fffef0" fill-opacity="1"><g transform="translate(194.696219, 207.708621)"><g><path d="M 0.703125 -4.546875 C 0.703125 -5.117188 0.789062 -5.703125 0.96875 -6.296875 C 1.144531 -6.898438 1.40625 -7.441406 1.75 -7.921875 C 2.101562 -8.410156 2.546875 -8.804688 3.078125 -9.109375 C 3.609375 -9.421875 4.222656 -9.578125 4.921875 -9.578125 C 5.515625 -9.578125 6.046875 -9.441406 6.515625 -9.171875 C 6.984375 -8.898438 7.316406 -8.484375 7.515625 -7.921875 C 7.660156 -7.453125 7.769531 -6.976562 7.84375 -6.5 C 7.914062 -6.019531 7.953125 -5.535156 7.953125 -5.046875 C 7.953125 -4.503906 7.894531 -3.953125 7.78125 -3.390625 C 7.675781 -2.828125 7.476562 -2.300781 7.1875 -1.8125 C 7.039062 -1.570312 6.863281 -1.335938 6.65625 -1.109375 C 6.457031 -0.890625 6.234375 -0.695312 5.984375 -0.53125 C 5.734375 -0.363281 5.460938 -0.234375 5.171875 -0.140625 C 4.890625 -0.046875 4.59375 0 4.28125 0 L 4.234375 0 C 3.640625 -0.0195312 3.117188 -0.164062 2.671875 -0.4375 C 2.234375 -0.71875 1.867188 -1.078125 1.578125 -1.515625 C 1.285156 -1.953125 1.066406 -2.4375 0.921875 -2.96875 C 0.773438 -3.5 0.703125 -4.023438 0.703125 -4.546875 Z M 2.40625 -2.0625 C 2.613281 -1.78125 2.878906 -1.53125 3.203125 -1.3125 C 3.523438 -1.09375 3.875 -0.984375 4.25 -0.984375 C 4.6875 -0.984375 5.085938 -1.113281 5.453125 -1.375 C 5.816406 -1.632812 6.101562 -1.945312 6.3125 -2.3125 C 6.550781 -2.707031 6.71875 -3.144531 6.8125 -3.625 C 6.90625 -4.113281 6.953125 -4.585938 6.953125 -5.046875 C 6.953125 -5.472656 6.921875 -5.90625 6.859375 -6.34375 C 6.796875 -6.789062 6.691406 -7.210938 6.546875 -7.609375 C 6.421875 -7.953125 6.210938 -8.203125 5.921875 -8.359375 C 5.640625 -8.515625 5.304688 -8.59375 4.921875 -8.59375 C 4.378906 -8.59375 3.90625 -8.46875 3.5 -8.21875 C 3.101562 -7.96875 2.769531 -7.648438 2.5 -7.265625 C 2.238281 -6.878906 2.039062 -6.441406 1.90625 -5.953125 C 1.78125 -5.472656 1.71875 -5.003906 1.71875 -4.546875 C 1.71875 -4.109375 1.769531 -3.675781 1.875 -3.25 C 1.976562 -2.820312 2.15625 -2.425781 2.40625 -2.0625 Z M 2.40625 -2.0625 "/></g></g></g><g fill="#fffef0" fill-opacity="1"><g transform="translate(203.45511, 207.708621)"><g><path d="M 5.53125 -3.625 C 5.382812 -3.613281 5.257812 -3.65625 5.15625 -3.75 C 5.050781 -3.84375 5 -3.957031 5 -4.09375 C 5 -4.226562 5.039062 -4.34375 5.125 -4.4375 C 5.207031 -4.539062 5.328125 -4.597656 5.484375 -4.609375 L 7.40625 -4.703125 C 7.550781 -4.703125 7.671875 -4.648438 7.765625 -4.546875 C 7.867188 -4.441406 7.921875 -4.328125 7.921875 -4.203125 C 7.921875 -4.148438 7.921875 -4.113281 7.921875 -4.09375 C 7.867188 -3.894531 7.835938 -3.695312 7.828125 -3.5 C 7.828125 -3.300781 7.828125 -3.109375 7.828125 -2.921875 C 7.828125 -2.554688 7.796875 -2.203125 7.734375 -1.859375 C 7.671875 -1.523438 7.554688 -1.226562 7.390625 -0.96875 C 7.222656 -0.71875 6.988281 -0.515625 6.6875 -0.359375 C 6.394531 -0.210938 6.007812 -0.140625 5.53125 -0.140625 C 3.945312 -0.140625 2.773438 -0.53125 2.015625 -1.3125 C 1.253906 -2.101562 0.875 -3.3125 0.875 -4.9375 C 0.875 -5.375 0.910156 -5.8125 0.984375 -6.25 C 1.054688 -6.695312 1.203125 -7.125 1.421875 -7.53125 C 1.585938 -7.84375 1.785156 -8.125 2.015625 -8.375 C 2.253906 -8.625 2.519531 -8.835938 2.8125 -9.015625 C 3.113281 -9.191406 3.429688 -9.328125 3.765625 -9.421875 C 4.097656 -9.523438 4.441406 -9.578125 4.796875 -9.578125 C 5.054688 -9.578125 5.320312 -9.546875 5.59375 -9.484375 C 5.863281 -9.429688 6.125 -9.347656 6.375 -9.234375 C 6.632812 -9.128906 6.875 -9 7.09375 -8.84375 C 7.3125 -8.6875 7.503906 -8.507812 7.671875 -8.3125 C 7.753906 -8.21875 7.796875 -8.109375 7.796875 -7.984375 C 7.796875 -7.859375 7.75 -7.742188 7.65625 -7.640625 C 7.5625 -7.535156 7.441406 -7.484375 7.296875 -7.484375 C 7.210938 -7.484375 7.140625 -7.5 7.078125 -7.53125 C 7.023438 -7.5625 6.972656 -7.597656 6.921875 -7.640625 C 6.617188 -7.941406 6.296875 -8.175781 5.953125 -8.34375 C 5.617188 -8.507812 5.234375 -8.59375 4.796875 -8.59375 C 4.285156 -8.59375 3.800781 -8.457031 3.34375 -8.1875 C 2.894531 -7.914062 2.550781 -7.550781 2.3125 -7.09375 C 2.132812 -6.769531 2.019531 -6.421875 1.96875 -6.046875 C 1.914062 -5.671875 1.890625 -5.289062 1.890625 -4.90625 C 1.890625 -4.613281 1.90625 -4.3125 1.9375 -4 C 1.976562 -3.6875 2.046875 -3.382812 2.140625 -3.09375 C 2.234375 -2.800781 2.363281 -2.523438 2.53125 -2.265625 C 2.707031 -2.015625 2.925781 -1.804688 3.1875 -1.640625 C 3.507812 -1.441406 3.882812 -1.304688 4.3125 -1.234375 C 4.738281 -1.160156 5.144531 -1.125 5.53125 -1.125 C 5.914062 -1.125 6.203125 -1.191406 6.390625 -1.328125 C 6.578125 -1.472656 6.707031 -1.738281 6.78125 -2.125 C 6.8125 -2.300781 6.828125 -2.476562 6.828125 -2.65625 C 6.828125 -2.832031 6.828125 -3 6.828125 -3.15625 C 6.828125 -3.238281 6.828125 -3.320312 6.828125 -3.40625 C 6.828125 -3.5 6.832031 -3.59375 6.84375 -3.6875 Z M 5.53125 -3.625 "/></g></g></g></svg>